<?xml version="1.0" encoding="UTF-8" standalone="no"?>
<!DOCTYPE svg PUBLIC "-//W3C//DTD SVG 1.1//EN" "http://www.w3.org/Graphics/SVG/1.1/DTD/svg11.dtd">
<svg width="100%" height="100%" viewBox="0 0 1484 635" version="1.1" xmlns="http://www.w3.org/2000/svg" xmlns:xlink="http://www.w3.org/1999/xlink" xml:space="preserve" xmlns:serif="http://www.serif.com/" style="fill-rule:evenodd;clip-rule:evenodd;stroke-linejoin:round;stroke-miterlimit:2;">
    <g transform="matrix(1,0,0,1,1185.328704,0.152811)">
        <path d="M0,0C12.365,0.026 24.729,0.052 37.094,0.077C62.871,0.129 88.648,0.183 114.425,0.246C116.615,0.252 118.806,0.257 120.996,0.263C122.607,0.266 122.607,0.266 124.25,0.271C131.685,0.289 139.12,0.304 146.555,0.319C155.496,0.336 164.436,0.357 173.377,0.382C177.879,0.395 182.38,0.406 186.882,0.413C202.626,0.439 218.367,0.493 234.105,0.994C235.18,1.023 236.255,1.053 237.362,1.083C255.229,1.754 268.971,9.773 281.262,22.543C303.83,49.715 296.959,91.231 296.94,124.29C296.938,130.031 296.941,135.773 296.944,141.514C296.948,152.726 296.947,163.939 296.944,175.152C296.942,184.275 296.942,193.398 296.943,202.521C296.943,204.476 296.943,204.476 296.943,206.472C296.944,209.122 296.944,211.771 296.944,214.421C296.947,238.501 296.944,262.581 296.939,286.661C296.934,308.578 296.935,330.494 296.94,352.411C296.945,377.111 296.947,401.811 296.944,426.511C296.944,429.151 296.943,431.791 296.943,434.431C296.943,435.73 296.943,437.028 296.943,438.366C296.942,447.465 296.943,456.563 296.945,465.661C296.948,476.769 296.947,487.876 296.942,498.984C296.94,504.638 296.939,510.292 296.942,515.946C296.948,528.373 296.927,540.799 296.827,553.225C296.81,555.51 296.797,557.795 296.785,560.08C296.761,563.951 296.693,567.82 296.614,571.69C296.606,573.265 296.606,573.265 296.598,574.872C296.367,582.838 293.993,589.351 290.809,596.61C290.38,597.62 290.38,597.62 289.943,598.65C283.588,613.001 272.086,623.398 257.809,629.61C257.062,629.945 256.315,630.281 255.545,630.626C245.523,634.545 235.546,634.28 224.949,634.352C222.865,634.379 220.781,634.408 218.697,634.438C212.068,634.526 205.439,634.571 198.809,634.61C197.748,634.617 196.686,634.624 195.592,634.631C179.844,634.735 164.095,634.747 148.346,634.738C142.451,634.736 136.555,634.738 130.66,634.741C118.495,634.745 106.331,634.745 94.166,634.742C81.874,634.74 69.582,634.739 57.29,634.741C56.507,634.741 55.725,634.741 54.919,634.742C51.731,634.742 48.544,634.743 45.357,634.743C15.809,634.748 -13.739,634.749 -43.286,634.746C-71.747,634.743 -100.208,634.742 -128.669,634.744C-130.463,634.744 -132.257,634.744 -134.05,634.744C-141.26,634.744 -148.469,634.744 -155.678,634.745C-175.827,634.746 -195.975,634.746 -216.124,634.747C-217.041,634.747 -217.958,634.747 -218.903,634.747C-248.092,634.747 -277.281,634.746 -306.471,634.744C-307.889,634.744 -307.889,634.744 -309.336,634.743C-324.687,634.742 -340.039,634.741 -355.39,634.74C-416.263,634.735 -477.136,634.735 -538.009,634.74C-553.355,634.741 -568.7,634.743 -584.045,634.744C-584.99,634.744 -585.935,634.744 -586.909,634.744C-616.071,634.746 -645.233,634.747 -674.395,634.747C-675.311,634.747 -676.228,634.746 -677.172,634.746C-697.298,634.746 -717.424,634.746 -737.55,634.745C-744.753,634.744 -751.955,634.744 -759.157,634.744C-760.949,634.744 -762.74,634.744 -764.532,634.743C-792.977,634.742 -821.423,634.744 -849.869,634.746C-879.337,634.749 -908.805,634.748 -938.274,634.743C-941.45,634.742 -944.626,634.742 -947.803,634.741C-948.582,634.741 -949.361,634.741 -950.165,634.741C-962.414,634.739 -974.663,634.74 -986.913,634.743C-999.012,634.746 -1011.111,634.745 -1023.209,634.74C-1029.658,634.737 -1036.107,634.737 -1042.555,634.74C-1057.041,634.748 -1071.526,634.719 -1086.011,634.628C-1089.26,634.609 -1092.509,634.597 -1095.757,634.586C-1101.09,634.565 -1106.422,634.516 -1111.754,634.448C-1113.72,634.426 -1115.687,634.412 -1117.654,634.407C-1131.954,634.362 -1142.917,632.422 -1155.191,624.547C-1156.222,623.896 -1157.253,623.245 -1158.316,622.575C-1171.046,613.875 -1180.043,599.43 -1184.191,584.61C-1184.569,581.428 -1184.696,578.25 -1184.808,575.049C-1184.845,574.125 -1184.883,573.201 -1184.922,572.249C-1185.293,562.362 -1185.33,552.478 -1185.318,542.585C-1185.319,540.557 -1185.321,538.529 -1185.323,536.5C-1185.327,530.99 -1185.325,525.48 -1185.322,519.97C-1185.319,514.002 -1185.323,508.035 -1185.326,502.067C-1185.33,491.075 -1185.329,480.082 -1185.327,469.089C-1185.324,458.931 -1185.323,448.772 -1185.325,438.614C-1185.325,437.937 -1185.325,437.261 -1185.325,436.565C-1185.325,433.819 -1185.325,431.073 -1185.326,428.328C-1185.329,402.62 -1185.326,376.912 -1185.321,351.203C-1185.316,328.408 -1185.316,305.613 -1185.321,282.818C-1185.327,257.154 -1185.329,231.491 -1185.326,205.827C-1185.325,203.086 -1185.325,200.346 -1185.325,197.606C-1185.325,196.931 -1185.324,196.257 -1185.324,195.561C-1185.323,185.414 -1185.325,175.267 -1185.327,165.119C-1185.33,153.571 -1185.329,142.023 -1185.324,130.474C-1185.321,124.59 -1185.32,118.706 -1185.323,112.822C-1185.326,107.422 -1185.325,102.022 -1185.319,96.622C-1185.318,94.683 -1185.319,92.743 -1185.321,90.803C-1185.333,80.949 -1185.213,71.111 -1184.812,61.264C-1184.782,60.407 -1184.752,59.549 -1184.721,58.665C-1184.118,45.688 -1178.459,35.149 -1171.191,24.61C-1170.732,23.933 -1170.273,23.256 -1169.8,22.559C-1161.862,12.157 -1146.85,4.331 -1134.191,1.61C-1132.838,1.502 -1131.482,1.437 -1130.125,1.408C-1129.326,1.388 -1128.526,1.369 -1127.703,1.349C-1126.403,1.325 -1126.403,1.325 -1125.076,1.301C-1124.16,1.28 -1123.244,1.26 -1122.3,1.239C-1119.27,1.174 -1116.24,1.117 -1113.21,1.06C-1112.16,1.039 -1111.111,1.018 -1110.03,0.997C-1088.642,0.573 -1067.259,0.439 -1045.868,0.409C-1040.647,0.401 -1035.426,0.387 -1030.205,0.374C-1019.963,0.35 -1009.721,0.331 -999.48,0.313C-987.285,0.291 -975.09,0.265 -962.896,0.238C-936.475,0.181 -910.054,0.132 -883.633,0.084C-882.614,0.083 -882.614,0.083 -881.574,0.081C-880.198,0.078 -878.823,0.076 -877.447,0.073C-863.578,0.049 -849.708,0.022 -835.839,-0.004C-765.226,-0.138 -694.613,-0.259 0,0Z" style="fill:rgb(3,12,30);fill-rule:nonzero;"/>
    </g>
    <g transform="matrix(1,0,0,1,358.950393,160.825036)">
        <path d="M0,0C7.519,6.467 12.802,14.322 15.188,23.938C16.076,28.281 16.076,28.281 18.188,31.938C20.163,32.151 22.139,32.359 24.118,32.532C36.127,33.602 45.929,35.782 55.188,43.938C55.793,44.451 56.399,44.964 57.023,45.492C65.28,53.027 69.815,62.955 70.332,74.035C70.41,80.089 70.104,86.01 69.309,92.012C69.02,94.022 69.02,94.022 70.188,95.938C71.343,96.329 72.498,96.721 73.688,97.125C84.798,101.113 93.49,110.947 98.562,121.312C104.776,135.816 104.638,150.368 99,165C95.962,171.973 91.849,177.502 86.25,182.625C83.97,184.777 83.97,184.777 83.688,187.688C84.235,191.248 85.256,194.394 86.453,197.781C90.423,209.438 87.81,221.844 82.902,232.809C77.745,242.017 70.073,249.946 60.188,253.938C57.837,254.546 55.534,255.03 53.133,255.383C50.565,256.115 49.719,256.725 48.188,258.938C47.615,261.483 47.177,263.926 46.812,266.5C44.611,279.666 38.318,290.681 27.438,298.75C15.672,306.401 2.238,310.42 -11.812,308.938C-22.43,306.32 -22.43,306.32 -25.812,302.938C-26.134,300.196 -26.134,300.196 -26.23,296.659C-26.25,296.014 -26.269,295.37 -26.289,294.706C-26.349,292.567 -26.392,290.429 -26.43,288.289C-26.443,287.556 -26.456,286.822 -26.47,286.067C-26.535,282.176 -26.584,278.285 -26.623,274.393C-26.658,271.189 -26.727,267.988 -26.828,264.786C-26.949,260.905 -27.01,257.029 -27.029,253.147C-27.046,251.677 -27.083,250.207 -27.142,248.738C-27.427,241.263 -26.931,235.351 -21.757,229.632C-17.287,225.168 -13.674,222.328 -7.164,221.52C-4.921,221.534 -2.677,221.611 -0.438,221.75C0.698,221.745 1.834,221.741 3.004,221.736C10.962,221.965 10.962,221.965 14.171,224.511C15.73,226.391 15.73,226.391 16.934,228.259C19.22,231.321 22.574,232.149 26.188,232.938C32.127,233.68 36.362,232.309 41.188,228.938C44.628,226.029 45.957,223.316 46.699,218.875C47.045,212.238 46.484,207.493 41.961,202.461C38.18,199.213 34.636,198.096 29.75,197.562C24.153,198.152 19.802,199.281 15.812,203.375C14.448,205.527 13.303,207.653 12.188,209.938C11.321,209.931 10.454,209.925 9.561,209.918C6.309,209.911 3.06,209.935 -0.19,209.98C-1.591,209.993 -2.991,209.994 -4.392,209.982C-14.102,209.764 -14.102,209.764 -22.445,214.168C-23.597,215.398 -24.722,216.653 -25.812,217.938C-26.77,218.868 -27.735,219.791 -28.711,220.703C-29.528,221.523 -30.345,222.343 -31.188,223.188C-32.02,224.018 -32.853,224.848 -33.711,225.703C-37.249,229.465 -38.062,231.545 -38.068,236.615C-38.078,238.362 -38.078,238.362 -38.089,240.145C-38.088,241.404 -38.087,242.663 -38.086,243.961C-38.101,245.937 -38.116,247.913 -38.133,249.89C-38.17,254.766 -38.188,259.642 -38.193,264.518C-38.197,267.253 -38.212,269.988 -38.238,272.723C-38.261,275.299 -38.269,277.876 -38.258,280.452C-38.271,281.624 -38.285,282.795 -38.298,284.001C-38.303,285.543 -38.303,285.543 -38.307,287.117C-38.944,290.669 -40.344,292.353 -42.812,294.938C-45.666,296.364 -47.647,296.248 -50.812,295.938C-54.824,293.476 -56.474,291.395 -57.812,286.938C-58.091,283.967 -58.076,281.014 -58.055,278.032C-58.057,277.146 -58.059,276.259 -58.061,275.345C-58.065,272.423 -58.054,269.501 -58.043,266.578C-58.042,264.547 -58.041,262.517 -58.042,260.486C-58.04,256.236 -58.032,251.986 -58.018,247.736C-58.001,242.276 -57.997,236.816 -57.998,231.355C-57.998,227.166 -57.993,222.976 -57.985,218.786C-57.982,216.772 -57.98,214.758 -57.979,212.743C-57.977,209.937 -57.968,207.131 -57.958,204.325C-57.958,203.486 -57.959,202.646 -57.959,201.781C-57.927,196.052 -57.927,196.052 -56.812,194.938C-53.675,194.855 -50.541,194.812 -47.402,194.805C-38.84,192.736 -32.444,183.504 -26.625,177.285C-23.945,174.483 -21.258,171.687 -18.571,168.892C-16.732,166.965 -14.908,165.024 -13.097,163.07C3.676,145.019 3.676,145.019 12.16,144.408C16.514,144.542 19.885,144.971 23.426,147.598C24.938,149.312 24.938,149.312 26.047,151.211C27.535,153.463 28.645,154.04 31.188,154.938C37.006,155.584 42.378,155.763 47.75,153.312C52.762,148.429 54.877,144.414 55.273,137.461C55.103,132.46 53.876,128.958 50.66,125.109C45.635,120.563 40.803,120.151 34.184,120.48C28.889,121.288 26.356,123.643 22.875,127.5C21.044,129.902 21.044,129.902 20.188,132.938C18.451,132.627 18.451,132.627 16.68,132.31C9.534,131.565 3.294,131.838 -2.807,135.961C-10.078,142.141 -16.504,149.203 -22.912,156.257C-27.095,160.849 -31.351,165.372 -35.633,169.872C-37.108,171.442 -38.549,173.04 -39.987,174.645C-46.489,181.596 -46.489,181.596 -50.441,182.615C-52.917,182.654 -52.917,182.654 -56.812,181.938C-60.386,178.364 -59.525,168.853 -59.747,164.144C-59.644,153.722 -55.68,147.832 -48.446,140.585C-43.716,136.08 -38.814,131.78 -33.823,127.565C-30.4,124.578 -27.651,121.47 -24.812,117.938C-23.534,116.733 -22.227,115.558 -20.875,114.438C-13.988,108.907 -13.988,108.907 -8.812,101.938C-8.742,100.036 -8.728,98.133 -8.742,96.23C-8.732,95.086 -8.722,93.942 -8.711,92.764C-8.695,90.35 -8.703,87.935 -8.734,85.521C-8.598,76.868 -8.598,76.868 -6.282,74.126C-4.51,72.908 -2.718,71.926 -0.812,70.938C3.219,66.148 3.819,60.58 3.574,54.488C2.824,49.54 0.242,46.913 -3.312,43.625C-8.472,40.142 -14.774,40.062 -20.812,40.938C-25.149,42.985 -27.974,45.81 -30.812,49.625C-32.488,55.174 -33.04,60.785 -30.898,66.285C-28.849,69.822 -27.427,71.614 -23.727,73.559C-20.621,76.094 -20.295,76.572 -19.594,80.289C-18.996,87.144 -18.701,93.715 -22.589,99.649C-26.935,104.75 -31.857,109.164 -37.047,113.391C-38.918,114.833 -38.918,114.833 -39.812,116.938L-41.812,116.938C-42.12,117.734 -42.12,117.734 -42.434,118.547C-44.4,121.956 -47.075,124.449 -49.875,127.188C-50.43,127.742 -50.985,128.296 -51.557,128.867C-55.672,132.938 -55.672,132.938 -56.812,132.938C-56.93,117.986 -57.018,103.034 -57.072,88.082C-57.097,81.139 -57.132,74.196 -57.19,67.252C-57.245,60.548 -57.274,53.844 -57.287,47.139C-57.296,44.585 -57.314,42.031 -57.341,39.478C-57.378,35.892 -57.382,32.307 -57.38,28.721C-57.398,27.672 -57.416,26.624 -57.435,25.543C-57.376,17.164 -54.899,11.016 -49.855,4.352C-36.135,-8.878 -16.063,-11.521 0,0Z" style="fill:rgb(3,13,31);fill-rule:nonzero;"/>
    </g>
    <g transform="matrix(1,0,0,1,242.387893,158.512536)">
        <path d="M0,0C6.037,4.939 11.146,10.7 12.021,18.741C12.118,21.729 12.121,24.704 12.091,27.693C12.091,28.826 12.091,29.958 12.092,31.125C12.09,34.853 12.067,38.581 12.043,42.309C12.037,44.899 12.033,47.49 12.03,50.081C12.02,56.193 11.996,62.306 11.966,68.419C11.932,75.381 11.916,82.344 11.901,89.306C11.87,103.621 11.817,117.935 11.75,132.25C11.283,131.849 10.815,131.449 10.334,131.036C9.714,130.504 9.094,129.972 8.455,129.425C7.843,128.9 7.231,128.376 6.601,127.835C5.396,126.803 4.191,125.773 2.984,124.743C-22.091,103.328 -22.091,103.328 -24.297,92.57C-24.7,86.987 -24.767,81.356 -22.25,76.25C-20.327,74.322 -18.429,72.896 -16.118,71.461C-13.081,69.493 -12.27,67.693 -11.25,64.25C-10.419,58.186 -10.217,52.896 -13.75,47.688C-17.999,42.878 -22.546,41.588 -28.75,40.812C-34.438,41.524 -38.623,43.58 -42.625,47.688C-45.795,52.687 -47.316,57.28 -46.25,63.25C-44.377,67.68 -42.59,70.654 -38.113,72.645C-34.622,75.821 -34.783,76.792 -34.551,81.371C-34.526,83.81 -34.531,86.249 -34.562,88.688C-34.571,91.124 -34.568,93.56 -34.551,95.996C-34.563,97.076 -34.575,98.155 -34.587,99.267C-33.841,105.871 -28.962,109.819 -24.457,114.273C-23.792,114.938 -23.127,115.602 -22.442,116.287C-21.037,117.689 -19.629,119.089 -18.219,120.487C-16.082,122.606 -13.953,124.732 -11.826,126.859C-10.454,128.227 -9.081,129.594 -7.707,130.961C-6.766,131.9 -6.766,131.9 -5.806,132.859C-2.633,135.998 0.596,139.027 3.966,141.956C4.956,142.826 4.956,142.826 5.967,143.713C7.354,144.909 8.783,146.057 10.226,147.185C12.555,150.341 12.245,153.534 12.141,157.297C12.135,158.068 12.129,158.839 12.123,159.634C12.101,162.09 12.051,164.544 12,167C11.98,168.668 11.962,170.336 11.945,172.004C11.901,176.087 11.832,180.168 11.75,184.25C-0.8,187.327 -15.501,189.522 -27.095,182.536C-34.39,177.265 -40.729,171.054 -47,164.625C-47.917,163.704 -48.834,162.783 -49.778,161.835C-52.426,159.134 -54.998,156.381 -57.547,153.586C-58.33,152.761 -59.112,151.936 -59.919,151.087C-65.208,144.945 -66.046,140.225 -65.789,132.181C-65.25,129.25 -65.25,129.25 -62.5,126.875C-61.428,126.339 -60.355,125.802 -59.25,125.25C-55.831,120.805 -54.574,116.043 -54.871,110.488C-55.653,105.867 -57.213,101.852 -60.969,98.898C-66.233,95.798 -71.176,94.456 -77.25,95.25C-82.629,97.183 -86.001,100.663 -89.25,105.25C-91.121,109.567 -90.966,114.909 -89.602,119.371C-87.848,123.336 -86.452,125.305 -82.562,127.25C-80.719,128.379 -80.719,128.379 -79.25,130.25C-78.754,133.659 -78.538,136.852 -78.601,140.287C-78.633,145.538 -77.583,148.223 -74.25,152.25C-72.342,154.117 -70.452,155.885 -68.438,157.625C-65.088,160.534 -61.984,163.484 -59.098,166.859C-54.673,172.013 -49.869,176.781 -45.06,181.57C-43.485,183.139 -41.916,184.714 -40.348,186.289C-39.341,187.295 -38.335,188.3 -37.328,189.305C-36.425,190.207 -35.522,191.109 -34.591,192.039C-31.438,195.017 -29.451,196.489 -25.146,196.569C-24.325,196.589 -23.505,196.609 -22.659,196.629C-21.778,196.641 -20.896,196.652 -19.988,196.664C-19.082,196.683 -18.177,196.703 -17.243,196.723C-14.35,196.783 -11.456,196.829 -8.562,196.875C-6.601,196.913 -4.639,196.952 -2.678,196.992C2.131,197.09 6.94,197.169 11.75,197.25L11.75,216.25C-48.724,220.394 -48.724,220.394 -61.24,210.152C-67.247,204.528 -72.746,198.187 -73.606,189.76C-73.566,186.301 -73.566,186.301 -73.268,183.161C-73.242,178.889 -74.899,176.291 -77.48,172.996C-81.198,169.328 -85.163,168.14 -90.25,167.875C-95.785,168.121 -99.888,170.07 -104.062,173.688C-107.819,178.087 -108.655,181.249 -108.496,186.941C-107.946,192.102 -106.084,195.79 -102.188,199.125C-97.147,202.772 -93.257,202.231 -87.279,201.771C-85.168,201.699 -85.168,201.699 -81.25,202.25C-78.457,205.078 -78.457,205.078 -76.25,208.25C-74.458,209.92 -72.603,211.429 -70.685,212.952C-68.25,215.25 -68.25,215.25 -66.153,218.434C-62.372,223.856 -58.482,227.558 -51.861,228.975C-42.538,229.971 -33.182,229.772 -23.821,229.548C-19.935,229.468 -16.05,229.456 -12.164,229.441C-7.806,229.423 -3.45,229.398 0.907,229.318C2.187,229.296 3.466,229.274 4.784,229.251C5.915,229.227 7.046,229.204 8.212,229.179C10.75,229.25 10.75,229.25 11.75,230.25C11.865,232.109 11.91,233.973 11.927,235.836C11.946,237.629 11.946,237.629 11.966,239.459C11.973,240.763 11.981,242.067 11.988,243.41C11.992,244.072 11.996,244.734 12.001,245.416C12.022,248.927 12.036,252.437 12.045,255.948C12.056,259.56 12.091,263.172 12.13,266.785C12.157,269.572 12.165,272.359 12.168,275.147C12.176,277.121 12.202,279.095 12.229,281.069C12.207,290.34 10.65,296.69 4.375,303.867C-1.424,308.802 -8.736,311.29 -16.215,311.578C-19.011,311.127 -20.219,310.225 -22.25,308.25C-23.132,303.824 -22.898,299.316 -22.875,294.812C-22.907,293.572 -22.939,292.331 -22.973,291.053C-22.982,282.188 -22.982,282.188 -20.932,279.562C-19.32,278.492 -19.32,278.492 -16.25,277.25C-13.426,274.93 -12.267,272.769 -11.25,269.25C-10.672,262.086 -11.871,257.143 -16.562,251.438C-21.105,247.74 -25.566,246.825 -31.301,247C-36.873,247.715 -40.798,251.03 -44.25,255.25C-46.547,260.679 -46.692,265.597 -45.25,271.25C-42.681,275.875 -40.335,279.555 -35.25,281.25L-35.25,303.25C-40.842,306.046 -49.662,304.952 -55.594,303.344C-67.902,298.395 -78.152,291.057 -84.125,278.938C-86.236,273.965 -87.083,269.141 -87.598,263.781C-88.045,261.142 -88.045,261.142 -90.078,259.461C-92.643,258.031 -95.204,257.543 -98.047,256.891C-107.698,254.084 -116.219,246.864 -121.562,238.5C-127.928,226.816 -130.531,214.353 -127.566,201.223C-127.045,199.605 -126.504,197.993 -125.938,196.391C-124.764,192.736 -124.731,190.074 -125.25,186.25C-127.374,183.625 -127.374,183.625 -130.25,181.25C-139.678,170.134 -144.055,157.388 -143.664,142.715C-142.422,132.317 -138.891,122.416 -132.25,114.25C-131.738,113.567 -131.226,112.884 -130.699,112.18C-124.853,104.84 -117.202,99.958 -108.25,97.25C-107.577,94.633 -107.159,92.694 -107.707,90.023C-110.317,76.69 -107.502,64.53 -100.25,53.25C-94.297,44.746 -84.016,37.631 -73.685,35.794C-71.061,35.527 -68.446,35.334 -65.812,35.188C-64.042,35.084 -62.273,34.969 -60.504,34.84C-59.734,34.797 -58.964,34.755 -58.17,34.711C-55.848,34.384 -55.848,34.384 -54.25,31.25C-53.812,29.259 -53.422,27.257 -53.062,25.25C-50.559,14.064 -44.834,6.41 -35.25,0.25C-24.038,-6.524 -11.375,-6.125 0,0Z" style="fill:rgb(4,12,31);fill-rule:nonzero;"/>
    </g>
    <g transform="matrix(1,0,0,1,250.610549,146.336755)">
        <path d="M0,0C9.315,6.671 16.12,16.142 18.527,27.426C18.618,29.014 18.658,30.606 18.662,32.198C18.666,33.16 18.67,34.123 18.675,35.115C18.675,36.169 18.675,37.224 18.675,38.311C18.678,39.434 18.682,40.556 18.686,41.713C18.697,45.489 18.701,49.265 18.704,53.041C18.71,55.743 18.717,58.445 18.724,61.147C18.744,69.266 18.754,77.384 18.763,85.503C18.767,89.328 18.773,93.154 18.778,96.979C18.795,109.7 18.809,122.421 18.817,135.142C18.819,138.443 18.821,141.743 18.823,145.043C18.823,145.863 18.823,146.684 18.824,147.529C18.832,160.81 18.858,174.091 18.89,187.372C18.923,201.015 18.941,214.658 18.944,228.3C18.947,235.957 18.955,243.614 18.981,251.271C19.003,257.793 19.011,264.316 19.001,270.838C18.996,274.163 19,277.488 19.018,280.813C19.035,284.426 19.028,288.039 19.015,291.652C19.026,292.691 19.037,293.73 19.048,294.801C18.957,305.262 15.522,313.939 9.527,322.426C8.95,323.292 8.372,324.158 7.777,325.051C4.444,328.57 0.706,331.001 -3.473,333.426C-4.191,333.845 -4.909,334.264 -5.648,334.695C-11.201,337.409 -16.514,337.833 -22.598,337.926C-23.35,337.944 -24.102,337.963 -24.877,337.982C-31.335,337.91 -36.844,336.054 -41.473,331.426C-43.762,331.332 -46.057,331.351 -48.348,331.426C-65.67,331.64 -79.953,326.338 -93.074,314.832C-101.756,306.122 -108.62,294.929 -109.473,282.426C-110.344,282.323 -111.215,282.22 -112.113,282.113C-123.814,279.719 -134.723,269.924 -141.223,260.238C-148.209,248.484 -151.65,237.808 -151.66,224.176C-151.672,223.285 -151.685,222.394 -151.697,221.477C-151.707,216.785 -151.368,212.598 -150.273,208.027C-149.42,204.391 -149.42,204.391 -150.598,200.902C-151.216,200.291 -151.835,199.68 -152.473,199.051C-165.237,184.754 -166.511,167.469 -165.68,149.146C-164.515,133.846 -155.154,118.217 -143.883,108.102C-140.238,105.12 -136.769,102.396 -132.473,100.426C-132.458,99.217 -132.444,98.007 -132.43,96.762C-131.996,78.548 -126.655,63.012 -114.098,49.488C-103.324,39.613 -89.221,32.798 -74.473,33.426C-74.411,32.477 -74.349,31.528 -74.285,30.551C-72.474,18.813 -63.751,9.351 -54.699,2.25C-52.022,0.459 -49.333,-1.095 -46.473,-2.574C-45.681,-3.006 -44.89,-3.438 -44.074,-3.883C-30.136,-10.236 -12.567,-8.001 0,0ZM-51.473,18.426C-57.741,25.553 -60.363,32.892 -62.598,41.926C-63.473,45.426 -63.473,45.426 -64.473,46.426C-66.635,46.583 -68.798,46.736 -70.962,46.868C-84.079,47.756 -96.422,51.107 -105.473,61.426C-112.728,70.729 -116.622,79.917 -116.598,91.738C-116.598,92.402 -116.598,93.065 -116.598,93.749C-116.576,97.29 -116.376,100.686 -115.785,104.176C-115.473,107.426 -115.473,107.426 -116.73,109.055C-118.473,110.426 -118.473,110.426 -122.035,111.613C-133.043,115.519 -140.888,125.296 -146.223,135.301C-153.157,150.153 -152.917,164.032 -147.473,179.426C-144.189,186.758 -140.275,193.891 -133.473,198.426C-132.971,203.108 -133.391,206.456 -134.973,210.863C-139.035,223.479 -136.77,236.349 -131.223,248.066C-125.787,258.134 -117.109,265.337 -106.473,269.426C-103.821,270.188 -101.162,270.801 -98.473,271.426C-95.932,273.966 -96.111,275.274 -95.723,278.801C-93.889,290.577 -87.752,301.091 -78.09,308.172C-75.604,309.734 -73.094,311.105 -70.473,312.426C-69.703,312.84 -68.934,313.253 -68.141,313.68C-60.834,317.157 -53.407,317.031 -45.473,316.426C-44.813,316.096 -44.153,315.766 -43.473,315.426C-43.328,311.822 -43.239,308.219 -43.16,304.613C-43.118,303.589 -43.076,302.565 -43.033,301.51C-42.988,298.732 -42.992,296.163 -43.473,293.426C-45.715,291.251 -45.715,291.251 -48.473,290.426C-51.953,286.647 -54.473,283.338 -54.473,278.062C-53.993,271.323 -52.622,267.187 -47.473,262.676C-42.987,259.311 -38.955,258.752 -33.473,259.426C-28.56,260.835 -25.269,262.47 -21.973,266.426C-19.482,271.408 -18.889,275.837 -19.473,281.426C-21.476,287.101 -25.086,290.733 -30.473,293.426C-30.589,297.863 -30.66,302.3 -30.723,306.738C-30.756,308.001 -30.79,309.264 -30.824,310.564C-30.837,311.773 -30.85,312.981 -30.863,314.227C-30.884,315.342 -30.905,316.457 -30.927,317.607C-30.735,320.509 -30.735,320.509 -28.675,322.286C-24.423,324.487 -20.381,323.973 -15.941,322.699C-7.119,319.431 -1.501,314.799 2.622,306.123C3.662,303.024 3.775,300.541 3.77,297.274C3.773,296.057 3.776,294.839 3.78,293.585C3.772,292.279 3.765,290.974 3.758,289.629C3.757,288.271 3.756,286.913 3.756,285.555C3.755,282.717 3.747,279.879 3.733,277.042C3.716,273.397 3.712,269.753 3.713,266.109C3.713,263.309 3.707,260.509 3.7,257.709C3.695,255.71 3.694,253.711 3.692,251.711C3.686,250.506 3.679,249.301 3.673,248.06C3.669,246.993 3.665,245.927 3.661,244.828C3.798,242.474 3.798,242.474 2.527,241.426C0.57,241.402 -1.388,241.449 -3.343,241.522C-4.603,241.563 -5.863,241.605 -7.161,241.647C-7.841,241.67 -8.52,241.692 -9.221,241.716C-13.608,241.843 -17.997,241.886 -22.386,241.937C-26.226,241.986 -30.059,242.069 -33.896,242.231C-60.683,243.322 -60.683,243.322 -69.634,236.261C-73.787,232.37 -77.341,228.133 -80.75,223.586C-83.035,220.72 -85.596,218.677 -88.473,216.426C-88.803,215.766 -89.133,215.106 -89.473,214.426C-90.558,214.472 -91.643,214.519 -92.762,214.566C-94.207,214.604 -95.652,214.64 -97.098,214.676C-97.811,214.709 -98.523,214.743 -99.258,214.777C-104.485,214.873 -107.302,213.832 -111.473,210.426C-115.994,205.538 -116.896,201.326 -116.82,194.809C-116.052,189.539 -113.078,185.639 -108.91,182.488C-103.539,180.147 -98.064,179.387 -92.352,181.039C-87.808,182.989 -84.753,185.53 -82.364,189.884C-81.277,192.982 -81.536,195.181 -81.824,198.441C-81.892,208.121 -77.46,213.978 -71.058,220.834C-57.761,233.285 -36.427,230.221 -19.498,229.673C-11.813,229.399 -4.144,228.951 3.527,228.426L3.527,209.426C-0.738,209.474 -0.738,209.474 -5.09,209.523C-7.874,209.524 -10.657,209.509 -13.44,209.493C-15.361,209.49 -17.281,209.503 -19.201,209.532C-37.201,209.789 -37.201,209.789 -43.086,204.559C-44.582,202.877 -46.043,201.164 -47.473,199.426C-48.852,198.057 -50.232,196.688 -51.634,195.342C-53.568,193.481 -55.458,191.579 -57.352,189.677C-58.798,188.226 -60.249,186.78 -61.701,185.334C-69.456,177.568 -69.456,177.568 -72.387,173.969C-74.826,170.995 -77.529,168.738 -80.508,166.332C-84.276,162.676 -86.35,159.87 -86.801,154.551C-86.782,153.176 -86.756,151.801 -86.723,150.426C-86.731,144.991 -86.731,144.991 -89.199,140.297C-91.32,138.843 -91.32,138.843 -93.527,137.633C-96.796,135.605 -97.482,133.017 -98.473,129.426C-99.254,123.781 -98.344,119.427 -95.473,114.426C-91.303,110.049 -88.017,107.645 -81.848,107.113C-76.847,107.196 -72.666,108.727 -68.473,111.426C-64.379,116.44 -63.102,120.677 -63.195,127.012C-63.652,130.988 -65.032,134.253 -67.473,137.426C-68.545,137.962 -69.618,138.498 -70.723,139.051C-73.739,141.155 -73.739,141.155 -74.012,144.357C-74.269,152.401 -73.43,157.121 -68.141,163.262C-67.359,164.087 -66.576,164.912 -65.77,165.762C-64.956,166.654 -64.143,167.546 -63.304,168.465C-60.662,171.299 -57.956,174.055 -55.223,176.801C-54.31,177.737 -53.397,178.672 -52.457,179.636C-41.82,190.349 -32.408,199.121 -16.714,199.278C-9.834,198.984 -3.164,198.066 3.527,196.426C3.777,191.625 3.957,186.828 4.077,182.021C4.127,180.392 4.195,178.762 4.282,177.134C4.936,167.281 4.936,167.281 1.538,158.308C-0.994,155.748 -3.589,153.577 -6.473,151.426C-7.734,150.348 -8.986,149.261 -10.227,148.16C-10.867,147.61 -11.508,147.061 -12.168,146.494C-17.143,142.028 -21.831,137.253 -26.557,132.527C-28.425,130.661 -30.301,128.803 -32.178,126.945C-33.369,125.757 -34.56,124.568 -35.75,123.379C-36.31,122.826 -36.871,122.273 -37.448,121.703C-41.889,117.235 -42.587,114.547 -42.578,108.367C-42.593,107.177 -42.608,105.986 -42.623,104.76C-42.648,102.249 -42.653,99.739 -42.639,97.229C-42.699,93.861 -42.81,90.729 -43.473,87.426C-46.174,84.691 -46.174,84.691 -49.473,83.426C-52.615,79.947 -54.765,76.162 -55.035,71.426C-54.626,65.655 -52.131,61.041 -48.035,57.051C-43.082,53.91 -39.392,52.834 -33.473,53.426C-27.984,55.001 -23.353,57.279 -20.289,62.242C-18.282,67.61 -18.352,73.495 -20.395,78.836C-22.407,82.332 -23.768,84.089 -27.49,85.869C-30.734,88.649 -31.005,89.213 -31.636,93.217C-32.339,103.036 -32.002,110.981 -25.418,118.689C-21.787,122.444 -17.957,125.917 -14.035,129.363C-12.449,130.843 -10.867,132.328 -9.291,133.818C-3.464,140.401 -3.464,140.401 3.527,144.426C3.644,129.474 3.732,114.522 3.786,99.57C3.812,92.627 3.847,85.684 3.905,78.741C3.96,72.036 3.989,65.332 4.002,58.628C4.011,56.074 4.029,53.52 4.056,50.966C4.092,47.38 4.097,43.795 4.095,40.209C4.113,39.161 4.131,38.112 4.149,37.031C4.093,28.954 2.111,22.317 -3.45,16.279C-9.605,10.472 -16.125,7.862 -24.535,7.176C-35.326,7.861 -43.496,11.015 -51.473,18.426Z" style="fill:rgb(136,98,247);fill-rule:nonzero;"/>
    </g>
    <g transform="matrix(1,0,0,1,360.137893,144.762536)">
        <path d="M0,0C0.802,0.434 1.604,0.869 2.43,1.316C13.604,8.102 22.735,18.58 27,31L27,35C27.825,34.979 28.65,34.959 29.5,34.938C43.98,35.196 56.675,41.935 67,52C76.04,61.593 82.759,73.738 84,87C83.805,89.48 83.597,91.959 83.375,94.438C83.268,100.007 83.268,100.007 86.199,104.504C89.058,106.497 91.984,108.255 95,110C107.242,119.598 114.857,136.507 116.715,151.656C118.159,168.59 114.871,183.484 106,198C104.689,199.518 103.339,201.003 101.938,202.438C100.183,204.18 100.183,204.18 99,206C99.358,209.587 99.358,209.587 101,213C103.923,230.246 100.588,246.716 91.312,261.625C84.434,271.286 74.656,281.239 62.641,283.684C61.769,283.788 60.898,283.892 60,284C59.917,285.093 59.835,286.186 59.75,287.312C57.671,303.268 47.648,316.977 35.25,326.688C29.789,330.657 24.283,333.565 18,336C17.031,336.392 16.061,336.784 15.062,337.188C2.348,340.561 -8.866,340.8 -21.641,337.754C-28.832,336.04 -28.832,336.04 -36,337C-44.913,338.158 -51.601,336.025 -59,331C-66.699,324.181 -72.378,314.989 -73.19,304.564C-73.266,301.641 -73.281,298.723 -73.274,295.799C-73.279,294.678 -73.285,293.558 -73.29,292.403C-73.305,288.653 -73.306,284.902 -73.306,281.152C-73.314,278.461 -73.322,275.77 -73.332,273.079C-73.354,265.771 -73.362,258.463 -73.367,251.155C-73.371,246.588 -73.377,242.02 -73.384,237.453C-73.404,224.795 -73.42,212.138 -73.423,199.48C-73.424,198.671 -73.424,197.862 -73.424,197.028C-73.424,195.387 -73.425,193.747 -73.425,192.106C-73.425,191.292 -73.425,190.477 -73.426,189.638C-73.426,188.823 -73.426,188.008 -73.426,187.168C-73.43,173.962 -73.457,160.756 -73.494,147.55C-73.532,133.976 -73.551,120.402 -73.552,106.828C-73.552,99.213 -73.561,91.599 -73.59,83.984C-73.614,77.499 -73.622,71.014 -73.607,64.529C-73.599,61.224 -73.603,57.919 -73.623,54.614C-73.643,51.021 -73.633,47.429 -73.615,43.836C-73.628,42.806 -73.641,41.775 -73.655,40.714C-73.514,28.454 -67.964,18.1 -60,9C-44.173,-6.113 -19.491,-10.712 0,0ZM-52,22C-55.783,27.05 -58.127,31.35 -58.12,37.765C-58.122,38.745 -58.123,39.725 -58.124,40.735C-58.121,41.809 -58.117,42.883 -58.114,43.989C-58.114,45.121 -58.114,46.253 -58.114,47.419C-58.113,51.169 -58.105,54.918 -58.098,58.668C-58.096,61.264 -58.094,63.861 -58.093,66.457C-58.09,72.598 -58.082,78.739 -58.072,84.88C-58.061,91.872 -58.055,98.863 -58.05,105.855C-58.04,120.237 -58.022,134.618 -58,149C-56.883,148.048 -55.768,147.095 -54.652,146.142C-53.72,145.346 -53.72,145.346 -52.769,144.534C-50.626,142.676 -48.577,140.745 -46.562,138.75C-45.543,137.752 -45.543,137.752 -44.504,136.734C-42.782,135.131 -42.782,135.131 -43,133L-41,133C-39.298,131.267 -37.821,129.378 -36.285,127.496C-34,125 -34,125 -30.871,122.535C-25.549,118.277 -21.931,114.754 -20.949,107.77C-20.837,105.89 -20.771,104.008 -20.75,102.125C-20.729,101.221 -20.708,100.317 -20.686,99.386C-20.849,95.52 -21.052,92.986 -23.799,90.129C-25.91,88.519 -25.91,88.519 -28.099,87.219C-31.133,85.274 -31.969,83.415 -33,80C-33.899,73.346 -33.527,68.15 -29.469,62.66C-26.45,59.248 -24.038,57.268 -19.418,56.66C-13.532,56.459 -9.067,56.96 -4,60C0.155,64.057 2.159,67.329 2.312,73.125C2.243,78.466 1.502,82.839 -2,87C-2.56,87.293 -3.12,87.585 -3.697,87.886C-5.907,89.08 -7.373,90.07 -9,92C-10.089,97.371 -9.573,102.851 -9.371,108.299C-9.324,114.175 -9.342,118.041 -13.312,122.598C-14.518,123.757 -15.747,124.892 -17,126C-18.173,127.202 -19.341,128.41 -20.5,129.625C-22.749,131.849 -25.064,133.921 -27.5,135.938C-29.964,137.997 -32.004,140.134 -34.035,142.617C-36.872,145.921 -39.884,148.628 -43.277,151.355C-54.788,160.588 -54.788,160.588 -60.246,173.774C-60.846,181.475 -60.39,189.402 -59,197C-57.765,198.424 -57.765,198.424 -54.105,198.717C-49.317,198.641 -47.258,196.908 -43.889,193.61C-42.506,192.13 -41.123,190.649 -39.77,189.141C-38.298,187.506 -36.795,185.907 -35.278,184.314C-30.975,179.783 -26.724,175.208 -22.522,170.583C-2.854,149.002 -2.854,149.002 7.643,148.345C10.172,148.43 12.597,148.717 15.102,149.056C16.389,149.038 17.675,149.019 19,149C20.524,147.363 21.314,145.841 22.175,143.783C23.726,140.43 26.787,138.607 30,137C36.252,136.3 42.264,135.809 47.625,139.5C51.28,142.807 53.258,146.116 54,151C54.216,157.341 53.297,162.122 49,167C45.078,170.822 41.798,171.319 36.5,171.5C31.197,171.325 27.968,170.764 24,167C23.445,166.147 22.889,165.294 22.317,164.415C19.755,161.745 18.22,161.25 14.558,161.037C6.847,161.075 2.267,162.041 -3.515,167.679C-4.963,169.177 -6.367,170.709 -7.773,172.246C-8.796,173.301 -9.822,174.352 -10.852,175.4C-13.528,178.143 -16.153,180.929 -18.769,183.729C-21.451,186.582 -24.176,189.392 -26.898,192.205C-29.953,195.363 -33.002,198.525 -36.018,201.721C-36.907,202.662 -37.796,203.603 -38.712,204.572C-39.886,205.821 -39.886,205.821 -41.083,207.095C-45.076,211.062 -49.753,210.389 -55.129,210.719C-57.895,210.683 -57.895,210.683 -59,212C-59.111,214.798 -59.157,217.572 -59.161,220.372C-59.166,221.25 -59.171,222.128 -59.176,223.033C-59.191,225.953 -59.198,228.873 -59.203,231.793C-59.209,233.817 -59.215,235.842 -59.22,237.866C-59.231,242.119 -59.237,246.372 -59.24,250.625C-59.246,256.072 -59.27,261.518 -59.298,266.964C-59.317,271.15 -59.322,275.335 -59.324,279.521C-59.327,281.529 -59.335,283.536 -59.348,285.543C-59.365,288.356 -59.363,291.168 -59.356,293.981C-59.366,294.809 -59.375,295.637 -59.384,296.49C-59.343,302.253 -58.343,306.576 -54.188,310.875C-51.192,312.415 -49.33,312.476 -46,312C-43.3,310.2 -41.458,308.916 -40,306C-39.926,304.173 -39.917,302.344 -39.938,300.516C-39.947,299.367 -39.956,298.218 -39.965,297.034C-39.977,295.786 -39.988,294.537 -40,293.25C-40.001,290.613 -40,287.977 -39.996,285.34C-39.99,281.177 -39.995,277.015 -40.051,272.852C-40.087,270.142 -40.099,267.434 -40.084,264.724C-40.07,262.175 -40.089,259.625 -40.146,257.077C-40.053,250.265 -39.218,246.477 -34.607,241.319C-33.096,239.853 -31.563,238.41 -30,237C-29.067,236.037 -28.139,235.069 -27.223,234.09C-26.51,233.38 -25.797,232.669 -25.062,231.938C-24.332,231.204 -23.601,230.471 -22.848,229.715C-19.433,226.545 -16.984,226.911 -12.418,226.965C-11.08,226.961 -9.742,226.955 -8.404,226.947C-6.297,226.937 -4.192,226.937 -2.085,226.976C6.009,227.453 6.009,227.453 12.974,224.225C14.329,222.119 14.329,222.119 15.19,219.906C16.397,217.066 18.246,216.2 21,215C26.079,213.138 31.21,213.393 36.125,215.562C40.332,217.936 43.257,220.414 45,225C46.061,231.351 46.184,237.176 42.438,242.625C38.497,247.009 34.408,248.737 28.562,249.375C24.268,248.923 20.756,248.168 17,246C16.14,244.847 15.322,243.662 14.543,242.453C11.707,239.036 9.531,238.374 5.148,237.895C2.891,237.83 0.633,237.804 -1.625,237.812C-2.737,237.744 -3.85,237.675 -4.996,237.604C-11.926,237.559 -16.386,239.253 -21.333,244.092C-26.37,249.125 -28.296,253.261 -28.475,260.577C-28.462,262.702 -28.389,264.819 -28.312,266.941C-28.3,268.442 -28.293,269.942 -28.29,271.442C-28.272,274.561 -28.214,277.676 -28.125,280.793C-28.011,284.788 -27.968,288.78 -27.95,292.777C-27.934,295.863 -27.894,298.949 -27.847,302.034C-27.824,303.508 -27.805,304.982 -27.79,306.456C-27.762,308.508 -27.708,310.557 -27.645,312.608C-27.617,313.773 -27.59,314.938 -27.562,316.138C-27.265,319.096 -27.265,319.096 -25.094,320.84C-13.579,327.217 -1.039,325.72 11.152,322.27C25.369,317.847 35.312,308.387 42.395,295.453C44.895,289.723 45.753,283.979 46.41,277.785C47.056,274.734 47.451,273.741 50,272C52.383,271.262 52.383,271.262 55.125,270.688C65.426,268.055 73.722,261.194 79.727,252.5C87.582,239.188 88.297,226.359 84.754,211.723C84.111,209.062 84.111,209.062 83,207C82.438,204.375 82.438,204.375 83,201C84.539,199.25 84.539,199.25 86.562,197.375C96.354,188.295 101.205,175.918 102.16,162.801C102.681,148.727 97.867,135.411 88.812,124.688C83.954,119.582 77.733,114.169 70.738,112.441C69.878,112.223 69.878,112.223 69,112C67.76,109.52 68.076,108.417 68.438,105.688C70.036,90.893 69.05,78.266 60,66C52.339,56.606 42.13,50.458 30,49C26.574,48.734 23.155,48.504 19.723,48.344C17,48 17,48 15,46C14.48,44.141 14.031,42.262 13.625,40.375C11.137,30.094 6.594,21.788 -2.168,15.426C-19.25,5.358 -38.529,6.697 -52,22Z" style="fill:rgb(37,168,250);fill-rule:nonzero;"/>
    </g>
    <g transform="matrix(1,0,0,1,727.137893,259.762536)">
        <path d="M0,0L20,0L20,45L22,45C22.206,44.443 22.413,43.886 22.625,43.312C26.558,36.698 32.972,34.385 40.027,32.441C48.695,30.502 57.67,33.185 65.367,37.25C73.19,42.607 78.636,51.128 81.34,60.129C82.247,65.449 82.434,70.672 82.5,76.062C82.519,77.067 82.537,78.072 82.556,79.108C82.449,91.848 77.47,102.856 68.438,111.812C61.587,117.445 52.179,119.757 43.402,119.316C35.344,118.255 28.961,115.61 23,110C22.34,109.01 21.68,108.02 21,107C20.67,110.3 20.34,113.6 20,117L0,117L0,0Z" style="fill:rgb(251,250,250);fill-rule:nonzero;"/>
    </g>
    <g transform="matrix(1,0,0,1,1273.747268,298.965661)">
        <path d="M0,0C9.558,7.184 14.402,16.237 16.391,27.797C17.831,41.542 16.355,54.136 8.266,65.734C1.747,73.397 -7.666,78.546 -17.609,79.797C-30.766,80.616 -41.914,78.864 -52.609,70.797C-57.952,65.946 -61.266,60.591 -63.609,53.797C-63.835,53.146 -64.061,52.495 -64.293,51.824C-67.964,38.685 -66.475,23.509 -59.984,11.609C-53.519,1.626 -44.627,-3.967 -33.137,-6.816C-20.935,-8.683 -10.37,-6.587 0,0Z" style="fill:rgb(37,144,249);fill-rule:nonzero;"/>
    </g>
    <g transform="matrix(1,0,0,1,1342.387893,292.450036)">
        <path d="M0,0C0.904,-0.029 1.807,-0.058 2.738,-0.088C13.313,-0.187 21.541,4.356 29.312,11.375C37.42,19.769 39.737,31.341 40.062,42.625C39.803,55.621 36.315,66.457 27.5,76.125C18.136,84.851 6.292,86.805 -6.082,86.559C-16.398,85.757 -25.935,81.153 -33.062,73.625C-42.941,61.481 -43.315,47.253 -42.25,32.312C-40.161,20.805 -33.67,12.061 -24.25,5.312C-16.288,0.919 -8.962,0.094 0,0Z" style="fill:rgb(18,154,246);fill-rule:nonzero;"/>
    </g>
    <g transform="matrix(1,0,0,1,602.141799,297.785973)">
        <path d="M0,0C6.965,5.941 9.775,10.926 10.996,19.977C11.185,23.306 11.251,26.635 11.312,29.969C11.333,30.915 11.354,31.861 11.375,32.835C11.441,35.841 11.5,38.846 11.559,41.852C11.602,43.896 11.645,45.94 11.689,47.984C11.796,52.982 11.898,57.979 11.996,62.977C13.976,63.967 13.976,63.967 15.996,64.977L15.996,78.977C8.815,80.772 2.528,80.871 -4.004,76.977C-5.964,74.744 -7.424,72.515 -9.004,69.977C-9.963,71.059 -9.963,71.059 -10.941,72.164C-15.801,77.01 -22.104,80.563 -29.004,80.977C-29.804,81.038 -30.605,81.1 -31.43,81.164C-39.804,81.543 -46.668,79.522 -53.879,75.289C-59.951,68.681 -61.707,62.729 -61.523,53.794C-61.175,47.194 -60.007,42.867 -55.238,38.277C-42.413,27.85 -24.706,28.601 -9.004,28.977C-9.66,21.26 -9.66,21.26 -13.504,14.852C-17.206,12.075 -19.215,11.795 -23.816,11.727C-24.854,11.701 -25.892,11.675 -26.961,11.648C-30.444,12.024 -32.24,12.848 -35.004,14.977C-36.203,16.742 -36.203,16.742 -36.816,18.664C-37.208,19.757 -37.6,20.85 -38.004,21.977C-51.637,22.161 -51.637,22.161 -58.004,20.977C-57.053,11.658 -54.64,6.738 -47.543,0.773C-34.26,-8.627 -13.529,-9.113 0,0Z" style="fill:rgb(249,249,249);fill-rule:nonzero;"/>
    </g>
    <g transform="matrix(1,0,0,1,937.137893,296.762536)">
        <path d="M0,0C7.087,4.777 11.192,10.653 13,19C13.11,20.526 13.175,22.055 13.205,23.585C13.235,24.936 13.235,24.936 13.266,26.314C13.282,27.278 13.299,28.241 13.316,29.234C13.337,30.228 13.358,31.221 13.379,32.244C13.445,35.413 13.504,38.581 13.562,41.75C13.606,43.9 13.649,46.049 13.693,48.199C13.8,53.466 13.902,58.733 14,64C15.65,64.33 17.3,64.66 19,65L19,80C12.675,81.265 6.902,81.931 0.688,79.938C-2.845,77.391 -4.652,74.66 -7,71C-7.496,71.471 -7.993,71.941 -8.504,72.426C-16.372,79.636 -23.611,82.358 -34.312,82.215C-42.698,81.544 -49.978,78.604 -55.539,72.238C-60.329,65.214 -60.004,57.112 -59,49C-57.123,42.516 -53.23,38.627 -47.512,35.215C-34.934,29.131 -20.631,29.832 -7,30C-7.83,22.418 -7.83,22.418 -11.438,15.875C-16.493,12.176 -21.957,12.387 -28,13C-32.21,14.92 -33.573,15.991 -35.375,20.25C-35.684,21.611 -35.684,21.611 -36,23C-42.769,23.102 -49.303,23.03 -56,22C-55.564,13.862 -52.775,8.395 -46.875,2.75C-34.887,-6.546 -13.13,-7.809 0,0Z" style="fill:rgb(249,249,249);fill-rule:nonzero;"/>
    </g>
    <g transform="matrix(1,0,0,1,1068.137893,296.762536)">
        <path d="M0,0C6.822,5.851 10.525,12.187 11.262,21.201C11.346,24.951 11.337,28.69 11.293,32.441C11.287,33.819 11.283,35.196 11.28,36.573C11.269,40.168 11.239,43.764 11.206,47.359C11.175,51.039 11.162,54.72 11.146,58.4C11.114,65.6 11.062,72.8 11,80L-10,80C-10.015,78.335 -10.029,76.67 -10.044,74.955C-10.102,68.771 -10.179,62.587 -10.262,56.404C-10.297,53.729 -10.324,51.054 -10.346,48.378C-10.38,44.531 -10.432,40.683 -10.488,36.836C-10.495,35.642 -10.501,34.448 -10.508,33.218C-10.617,25.185 -10.617,25.185 -14,18C-17.564,14.666 -20.497,14.144 -25.25,13.688C-30.551,14.129 -34.747,15.585 -38.447,19.551C-42.669,25.687 -42.732,31.306 -42.707,38.594C-42.722,39.781 -42.737,40.968 -42.753,42.192C-42.796,45.961 -42.805,49.73 -42.812,53.5C-42.836,56.065 -42.861,58.63 -42.889,61.195C-42.951,67.464 -42.984,73.731 -43,80L-64,80L-64,-3L-44,-3L-44,9L-42,9C-41.898,8.403 -41.796,7.806 -41.691,7.191C-40.114,2.191 -34.935,-0.49 -30.562,-2.875C-21.202,-5.922 -8.271,-5.504 0,0Z" style="fill:rgb(248,248,248);fill-rule:nonzero;"/>
    </g>
    <g transform="matrix(1,0,0,1,1181.137893,271.762536)">
        <path d="M0,0L0,22L19,22L19,39L0,39C0.097,44.89 0.2,50.78 0.317,56.67C0.356,58.673 0.39,60.675 0.422,62.678C0.468,65.561 0.526,68.442 0.586,71.324C0.597,72.217 0.609,73.11 0.621,74.03C0.724,78.387 0.812,82.103 3,86C7.546,88.273 14.087,87.687 19,88L19,105C10.449,107.138 -0.674,107.717 -8.812,103.875C-15.905,99.512 -19.09,94.012 -21,86C-21.371,82.271 -21.352,78.584 -21.293,74.84C-21.289,73.809 -21.284,72.779 -21.28,71.717C-21.263,68.457 -21.226,65.197 -21.188,61.938C-21.172,59.714 -21.159,57.491 -21.146,55.268C-21.114,49.845 -21.062,44.423 -21,39L-34,39L-34,22L-21,22L-21,1C-11,0 -11,0 0,0Z" style="fill:rgb(48,141,248);fill-rule:nonzero;"/>
    </g>
    <g transform="matrix(1,0,0,1,1395.137893,259.762536)">
        <path d="M0,0L20,0C20.02,2.892 20.04,5.785 20.06,8.765C20.127,18.308 20.205,27.852 20.288,37.395C20.338,43.183 20.384,48.97 20.422,54.758C20.459,60.341 20.505,65.923 20.558,71.506C20.577,73.639 20.592,75.771 20.603,77.904C20.62,80.885 20.649,83.866 20.681,86.847C20.683,87.734 20.685,88.621 20.688,89.534C20.699,90.346 20.71,91.158 20.722,91.995C20.727,92.7 20.733,93.405 20.738,94.132C20.909,96.333 20.909,96.333 23,99C25.195,99.58 25.195,99.58 27.625,99.688C29.069,99.791 30.512,99.894 32,100L32,117C23.841,118.632 15.437,119.345 8,115C3.468,111.578 1.473,108.534 0,103C-0.277,99.62 -0.253,96.254 -0.227,92.864C-0.227,91.858 -0.228,90.853 -0.228,89.817C-0.227,86.505 -0.211,83.194 -0.195,79.883C-0.192,77.582 -0.189,75.281 -0.187,72.981C-0.179,66.934 -0.159,60.888 -0.137,54.841C-0.117,48.668 -0.108,42.494 -0.098,36.32C-0.076,24.213 -0.041,12.107 0,0Z" style="fill:rgb(11,164,244);fill-rule:nonzero;"/>
    </g>
    <g transform="matrix(1,0,0,1,871.137893,292.762536)">
        <path d="M0,0L0,20C-2.186,19.938 -4.372,19.876 -6.625,19.812C-13.455,19.619 -17.512,20.908 -22.75,25.312C-27.775,31.315 -27.333,38.062 -27.414,45.523C-27.433,46.625 -27.453,47.726 -27.473,48.861C-27.532,52.365 -27.579,55.87 -27.625,59.375C-27.663,61.757 -27.702,64.138 -27.742,66.52C-27.838,72.346 -27.922,78.173 -28,84L-49,84L-49,1L-29,1C-28.67,4.96 -28.34,8.92 -28,13C-27.505,12.134 -27.01,11.268 -26.5,10.375C-19.783,0.239 -11.25,-0.111 0,0Z" style="fill:rgb(248,248,248);fill-rule:nonzero;"/>
    </g>
    <g transform="matrix(1,0,0,1,775.540237,310.723473)">
        <path d="M0,0C6.02,3.52 9.308,7.545 11.348,14.227C13.52,23.129 13.488,31.599 9.598,40.039C6.774,44.403 4.049,47.382 -0.715,49.539C-8.239,50.559 -14.187,51.247 -20.645,46.672C-25.456,42.203 -28.432,36.515 -28.676,29.941C-29.204,11.862 -29.204,11.862 -23.402,5.039C-16.982,-1.421 -8.616,-3.446 0,0Z" style="fill:rgb(6,15,30);fill-rule:nonzero;"/>
    </g>
    <g transform="matrix(1,0,0,1,1352.383987,312.438317)">
        <path d="M0,0C4.673,3.528 7.323,8.22 8.469,13.969C9.76,24.636 9.195,34.563 2.441,43.324C-3.39,47.664 -8.165,48.886 -15.246,48.324C-20.395,47.113 -24.253,45.074 -27.41,40.719C-32.3,32.751 -32.32,22.446 -31.246,13.324C-29.306,6.71 -25.971,2.1 -20.246,-1.676C-13.44,-3.846 -6.22,-3.581 0,0Z" style="fill:rgb(2,13,31);fill-rule:nonzero;"/>
    </g>
    <g transform="matrix(1,0,0,1,1257.739456,310.934411)">
        <path d="M0,0C5.733,3.623 8.404,6.898 10.586,13.328C12.609,22.417 12.3,32.3 8.398,40.828C5.855,44.787 2.868,48.123 -1.789,49.453C-8.518,50.35 -14.674,50.466 -20.602,46.828C-26.982,40.942 -28.218,34.168 -28.816,25.84C-29.067,17.937 -28.162,10.931 -23.352,4.453C-17.052,-1.56 -8.172,-3.681 0,0Z" style="fill:rgb(2,13,30);fill-rule:nonzero;"/>
    </g>
    <g transform="matrix(1,0,0,1,968.137893,293.762536)">
        <rect x="0" y="0" width="20" height="83" style="fill:rgb(252,252,252);fill-rule:nonzero;"/>
    </g>
    <g transform="matrix(1,0,0,1,630.137893,293.762536)">
        <rect x="0" y="0" width="20" height="83" style="fill:rgb(252,252,252);fill-rule:nonzero;"/>
    </g>
    <g transform="matrix(1,0,0,1,665.137893,321.762536)">
        <rect x="0" y="0" width="47" height="17" style="fill:rgb(251,251,251);fill-rule:nonzero;"/>
    </g>
    <g transform="matrix(1,0,0,1,1093.137893,321.762536)">
        <rect x="0" y="0" width="45" height="17" style="fill:rgb(253,253,253);fill-rule:nonzero;"/>
    </g>
    <g transform="matrix(1,0,0,1,930.137893,339.762536)">
        <path d="M0,0C0.351,6.462 0.289,11.329 -3,17C-7.832,21.966 -13.393,23.082 -20.125,23.312C-24.202,23.226 -26.796,22.704 -30,20C-32.469,16.297 -32.787,13.294 -32,9C-29.735,5.403 -28.045,3.488 -24.188,1.688C-16.073,-0.063 -8.28,-0.114 0,0Z" style="fill:rgb(11,19,32);fill-rule:nonzero;"/>
    </g>
    <g transform="matrix(1,0,0,1,593.137893,339.762536)">
        <path d="M0,0C0.386,6.181 0.098,11.512 -3,17C-7.435,21.681 -12.811,23.06 -19.125,23.25C-23.387,22.975 -26.266,22.437 -29.574,19.695C-32.185,16.591 -32.329,12.94 -32,9C-30.342,5.379 -27.839,3.4 -24.25,1.688C-16.165,-0.023 -8.246,-0.126 0,0Z" style="fill:rgb(11,19,33);fill-rule:nonzero;"/>
    </g>
    <g transform="matrix(1,0,0,1,242.137893,157.762536)">
        <path d="M0,0L3,0C8,5.349 8,5.349 8,8L10,8C14.118,18.669 14.857,28.688 15,40C15.015,41.066 15.03,42.131 15.046,43.229C15.152,52.47 15.107,61.708 15.026,70.949C15.007,73.135 14.99,75.322 14.974,77.508C14.92,84.803 14.853,92.097 14.761,99.391C14.719,102.785 14.681,106.179 14.654,109.573C14.621,113.414 14.569,117.253 14.512,121.094C14.505,122.266 14.499,123.439 14.492,124.646C14.473,125.719 14.453,126.791 14.432,127.896C14.421,128.838 14.41,129.779 14.399,130.748C14.267,131.491 14.136,132.234 14,133C13.01,133.66 12.02,134.32 11,135C-22.884,105.709 -22.884,105.709 -25.539,93.129C-25.958,86.946 -25.932,80.589 -23,75C-21.035,73.273 -19.232,72.162 -16.859,71.073C-13.993,69.419 -13.229,67.195 -12.336,64.109C-11.527,59.032 -12.399,54.765 -14.688,50.188C-17.336,46.537 -18.713,45.35 -23,44C-27.974,43.361 -31.67,43.123 -35.938,45.938C-36.618,46.618 -37.299,47.299 -38,48C-39.485,48.495 -39.485,48.495 -41,49C-41.33,49.99 -41.66,50.98 -42,52L-44,52C-44.33,56.29 -44.66,60.58 -45,65C-44.34,65.33 -43.68,65.66 -43,66C-42.567,66.743 -42.134,67.485 -41.688,68.25C-39.809,71.311 -37.601,73.539 -35,76C-40.597,74.401 -43.08,70.743 -46.312,66.125C-47.954,61.052 -47.539,56.582 -45.375,51.812C-42.728,47.051 -39.373,44.278 -34.562,41.688C-28.519,40.066 -23.672,40.905 -18.156,43.625C-14.295,46.087 -11.822,48.781 -10,53C-8.728,59.857 -9.424,65.476 -13.32,71.281C-15,73 -15,73 -18.031,74.609C-21.61,77.491 -22.409,79.334 -23.096,83.8C-23.719,90.384 -23.518,96.496 -19.555,102.011C-15.034,107.325 -9.932,112.059 -4.852,116.828C-3.318,118.307 -1.787,119.788 -0.259,121.272C3.466,124.878 7.223,128.448 11,132C11.117,117.179 11.205,102.357 11.259,87.536C11.285,80.653 11.32,73.77 11.377,66.888C11.433,60.242 11.461,53.596 11.474,46.95C11.484,44.418 11.502,41.886 11.529,39.355C11.565,35.8 11.57,32.247 11.568,28.692C11.595,27.133 11.595,27.133 11.622,25.542C11.547,14.881 7.137,7.635 0,0Z" style="fill:rgb(161,135,227);fill-rule:nonzero;"/>
    </g>
    <g transform="matrix(1,0,0,1,382.137893,192.762536)">
        <path d="M0,0C8.862,-0.566 15.755,0.787 24,4C24.99,4.33 25.98,4.66 27,5C28.667,6.667 30.333,8.333 32,10C33.646,11.034 35.31,12.041 37,13C39,15 39,15 39,18L41,18C48.306,29.976 51.854,43.143 49.125,57.188C48.754,58.446 48.383,59.704 48,61C48.557,61.364 49.114,61.727 49.688,62.102C54.937,65.56 60.007,69.183 65,73C65.736,73.512 66.472,74.024 67.23,74.551C67.814,75.029 68.398,75.507 69,76L69,78C70.485,78.495 70.485,78.495 72,79L72,82L74,82C82.214,96.736 83.912,113.641 79.634,129.996C78.571,133.357 77.048,136.405 75.375,139.5C75.029,140.148 74.683,140.796 74.326,141.463C71.34,146.827 67.732,151.06 63,155C63.205,155.69 63.41,156.379 63.621,157.09C65.337,163.077 66.64,168.781 67,175C67.064,175.84 67.129,176.681 67.195,177.547C67.568,186.135 65.622,195.622 61,203C60.01,203.33 59.02,203.66 58,204C58.286,203.161 58.572,202.322 58.867,201.457C63.531,187.225 67.13,173.261 60,159C59.438,156.375 59.438,156.375 60,153C61.539,151.25 61.539,151.25 63.562,149.375C73.354,140.295 78.205,127.918 79.16,114.801C79.683,100.684 74.84,87.369 65.75,76.625C60.734,71.355 55.078,67.538 48.266,64.969C46,64 46,64 45,62C45.091,60.558 45.248,59.12 45.438,57.688C47.173,41.628 45.522,28.696 35.254,15.809C25.656,5.292 13.488,2.822 0,1L0,0Z" style="fill:rgb(27,211,240);fill-rule:nonzero;"/>
    </g>
    <g transform="matrix(1,0,0,1,646.137893,258.762536)">
        <path d="M0,0C2.82,1.821 4.503,3.007 6,6C6.43,10.212 6.426,13.911 4.875,17.875C2.391,20.69 0.581,21.806 -3,23C-8.025,23.301 -11.087,22.761 -15,19.5C-15.66,18.675 -16.32,17.85 -17,17C-17.33,16.67 -17.66,16.34 -18,16C-18.66,10.91 -18.893,7.191 -15.75,3C-10.24,-1.007 -6.631,-1.667 0,0Z" style="fill:rgb(248,248,248);fill-rule:nonzero;"/>
    </g>
    <g transform="matrix(1,0,0,1,984.137893,258.762536)">
        <path d="M0,0C3.24,2.565 4.696,4.087 6,8C6.397,12.212 6.25,14.51 4.312,18.312C1.787,21.247 0.767,22.247 -3,23C-7.64,23.059 -11.027,22.608 -15,20.125C-18.373,16.541 -18.342,12.914 -18.281,8.223C-17.853,4.835 -16.511,3.239 -14,1C-9.619,-1.754 -4.841,-1.377 0,0Z" style="fill:rgb(248,248,248);fill-rule:nonzero;"/>
    </g>
    <g transform="matrix(1,0,0,1,329.137893,140.762536)">
        <path d="M0,0C-2.837,1.486 -5.673,2.615 -8.688,3.688C-18.704,7.682 -28.041,16.061 -34,25L-36,25C-36.155,26.733 -36.155,26.733 -36.312,28.5C-36.581,31.513 -37.211,33.454 -38.505,36.247C-40.857,42.485 -40.441,49.011 -40.432,55.586C-40.441,57.055 -40.452,58.524 -40.463,59.993C-40.491,63.962 -40.5,67.93 -40.506,71.899C-40.516,76.053 -40.542,80.208 -40.566,84.363C-40.61,92.221 -40.638,100.08 -40.661,107.938C-40.689,116.889 -40.732,125.839 -40.778,134.789C-40.87,153.193 -40.942,171.596 -41,190L-42,190C-42.117,170.128 -42.205,150.256 -42.259,130.384C-42.285,121.157 -42.32,111.929 -42.377,102.701C-42.427,94.654 -42.459,86.607 -42.47,78.56C-42.477,74.303 -42.492,70.046 -42.529,65.789C-42.563,61.773 -42.573,57.759 -42.566,53.743C-42.567,52.277 -42.577,50.812 -42.596,49.346C-42.778,34.861 -38.552,23.915 -29,13C-20.976,5.338 -11.188,-0.211 0,0Z" style="fill:rgb(65,200,248);fill-rule:nonzero;"/>
    </g>
    <g transform="matrix(1,0,0,1,219.137893,140.762536)">
        <path d="M0,0C-3.292,1.762 -6.667,2.955 -10.188,4.188C-22.395,8.871 -32.301,18.181 -38,30C-38.792,32.348 -39.53,34.694 -40.191,37.082C-41,39 -41,39 -44,41C-47.304,41.688 -50.599,42.248 -53.932,42.768C-58.439,43.531 -61.973,44.721 -66,47C-66.871,47.486 -67.743,47.972 -68.641,48.473C-79.327,54.983 -87.141,62.384 -92,74C-92.367,74.763 -92.735,75.526 -93.113,76.312C-97.837,86.207 -98.279,95.092 -98,106C-101.578,100.633 -100.678,93.273 -100,87C-96.584,71.396 -86.89,57.082 -73.625,48.312C-63.914,42.396 -54.51,38.51 -43,39C-42.938,38.051 -42.876,37.102 -42.812,36.125C-40.999,24.374 -32.252,14.861 -23.156,7.789C-16.026,3.042 -8.755,-0.673 0,0Z" style="fill:rgb(176,138,232);fill-rule:nonzero;"/>
    </g>
    <g transform="matrix(1,0,0,1,358.137893,158.762536)">
        <path d="M0,0C0.643,0.378 1.286,0.755 1.949,1.145C3.625,2.188 3.625,2.188 6,4L6,6C6.602,6.24 7.204,6.48 7.824,6.727C10.469,8.275 11.345,9.705 12.812,12.375C13.252,13.146 13.692,13.917 14.145,14.711C15.116,17.311 14.953,18.44 14,21C13.636,20.359 13.273,19.719 12.898,19.059C5.969,7.137 -0.829,0.161 -14.477,-3.492C-23.401,-5.288 -31.738,-3.756 -40,0C-47.793,5.199 -53.403,12.11 -55.543,21.342C-55.985,23.913 -56.138,26.285 -56.158,28.891C-56.168,29.849 -56.178,30.807 -56.188,31.793C-56.194,32.832 -56.199,33.871 -56.205,34.941C-56.215,36.044 -56.225,37.146 -56.235,38.283C-56.267,41.924 -56.292,45.566 -56.316,49.207C-56.337,51.733 -56.358,54.26 -56.379,56.786C-56.429,62.753 -56.474,68.721 -56.517,74.688C-56.567,81.484 -56.622,88.28 -56.677,95.075C-56.791,109.05 -56.898,123.025 -57,137L-58,137C-58.141,121.674 -58.246,106.349 -58.311,91.023C-58.342,83.906 -58.384,76.789 -58.453,69.672C-58.513,63.465 -58.551,57.258 -58.565,51.05C-58.572,47.767 -58.594,44.484 -58.634,41.201C-58.678,37.525 -58.684,33.85 -58.681,30.173C-58.703,29.099 -58.724,28.026 -58.747,26.921C-58.675,18.09 -55.845,11.283 -49.925,4.688C-48,3 -48,3 -46,3L-46,1C-30.79,-8.522 -15.609,-9.366 0,0Z" style="fill:rgb(69,207,245);fill-rule:nonzero;"/>
    </g>
    <g transform="matrix(1,0,0,1,1395.137893,259.762536)">
        <path d="M0,0L20,0L20,96L19,96L19,1C11.08,1.495 11.08,1.495 3,2C1.962,5.115 2.033,6.503 2.438,9.688C3.411,18.563 2.635,26.241 1,35L3,35C3.098,41.152 3.098,41.152 3,43C2.505,43.495 2.505,43.495 2,44C1.878,45.381 1.822,46.767 1.795,48.153C1.775,49.033 1.755,49.914 1.734,50.822C1.718,51.779 1.701,52.736 1.684,53.723C1.663,54.698 1.642,55.673 1.621,56.678C1.555,59.806 1.496,62.934 1.438,66.062C1.394,68.178 1.351,70.293 1.307,72.408C1.199,77.605 1.098,82.803 1,88L0,88L0,0Z" style="fill:rgb(10,202,248);fill-rule:nonzero;"/>
    </g>
    <g transform="matrix(1,0,0,1,221.137893,139.762536)">
        <path d="M0,0C13.337,-0.82 23.416,1.223 33.969,10.055C41.915,17.665 47.123,25.84 47.481,37.005C47.507,39.784 47.483,42.562 47.454,45.342C47.453,46.88 47.454,48.419 47.456,49.957C47.457,54.109 47.434,58.261 47.406,62.413C47.38,66.762 47.378,71.11 47.373,75.458C47.361,83.681 47.328,91.905 47.288,100.128C47.243,109.494 47.221,118.861 47.201,128.227C47.16,147.485 47.089,166.742 47,186L46,186C45.999,185.227 45.997,184.454 45.996,183.657C45.958,164.809 45.899,145.962 45.816,127.115C45.776,118 45.744,108.886 45.729,99.771C45.716,91.823 45.689,83.876 45.645,75.928C45.623,71.723 45.607,67.518 45.608,63.313C45.609,59.347 45.591,55.382 45.559,51.417C45.55,49.969 45.549,48.521 45.554,47.072C45.584,38.26 44.733,31.034 41,23C40.668,22.262 40.336,21.523 39.994,20.763C39.119,18.826 39.119,18.826 37,18C36.56,17.229 36.121,16.458 35.668,15.664C32.06,9.902 24.903,5.709 18.492,3.555C12.416,2.202 6.185,1.638 0,1L0,0Z" style="fill:rgb(171,147,253);fill-rule:nonzero;"/>
    </g>
    <g transform="matrix(1,0,0,1,475.137893,297.762536)">
        <path d="M0,0C2.744,2.744 2.332,4.347 2.375,8.188C2.123,22.719 -2.712,38.842 -13.062,49.438C-14.817,51.18 -14.817,51.18 -16,53C-15.642,56.587 -15.642,56.587 -14,60C-10.907,78.25 -14.838,95.921 -25.508,111.152C-27.408,113.505 -29.499,115.308 -32,117C-30.557,113.865 -28.773,111.304 -26.688,108.562C-17.53,95.608 -14.168,79.524 -16.453,63.902C-16.797,62.076 -17.164,60.253 -17.562,58.438C-18.234,54.697 -18.6,52.009 -16.625,48.688C-16.089,48.131 -15.553,47.574 -15,47L-13,47C-12.918,46.464 -12.835,45.928 -12.75,45.375C-11.741,42.178 -9.853,39.78 -8,37C-7.231,34.774 -7.231,34.774 -7,33L-5,33C-1.192,22.389 -0.821,11.145 0,0Z" style="fill:rgb(21,185,234);fill-rule:nonzero;"/>
    </g>
    <g transform="matrix(1,0,0,1,177.137893,288.762536)">
        <path d="M0,0L1,0C0.986,0.754 0.972,1.508 0.957,2.285C1.176,11.013 3.54,15.392 9.434,21.668C10.207,22.516 10.98,23.363 11.776,24.237C14.286,26.933 16.85,29.566 19.438,32.188C20.304,33.079 21.17,33.971 22.062,34.89C32.009,44.948 40.889,53.324 55.521,54.146C62.048,53.869 68.525,52.861 75,52L75,19L77,19L77,54C48.749,58.689 48.749,58.689 38.155,52.279C30.862,46.986 24.52,40.758 18.25,34.312C16.875,32.925 16.875,32.925 15.472,31.509C12.826,28.799 10.253,26.039 7.703,23.238C6.92,22.408 6.138,21.578 5.331,20.723C0.156,14.714 -0.763,10.38 -0.271,2.484C-0.181,1.664 -0.092,0.844 0,0Z" style="fill:rgb(4,4,21);fill-rule:nonzero;"/>
    </g>
    <g transform="matrix(1,0,0,1,338.137893,235.762536)">
        <path d="M0,0C2.468,4.373 2.332,8.083 2.312,13C2.329,13.807 2.345,14.614 2.361,15.445C2.366,21.359 2.366,21.359 0.652,24.359C0.107,24.901 -0.438,25.442 -1,26C-1.449,26.541 -1.897,27.083 -2.359,27.641C-3.327,28.76 -4.295,29.878 -5.264,30.996C-6.361,32.262 -7.454,33.531 -8.543,34.804C-13.055,40.038 -17.804,44.988 -22.688,49.875C-23.433,50.633 -24.179,51.391 -24.947,52.172C-25.67,52.896 -26.392,53.621 -27.137,54.367C-27.783,55.018 -28.43,55.669 -29.096,56.339C-30.98,57.982 -32.721,58.998 -35,60C-34.152,55.364 -31.308,53.007 -28,49.875C-24.02,46.311 -24.02,46.311 -21,42L-19,42C-18.745,41.404 -18.491,40.809 -18.229,40.195C-16.865,37.758 -15.532,36.591 -13.34,34.883C-3.92,27.127 -3.92,27.127 0.277,16.055C0.632,10.687 0.492,5.355 0,0Z" style="fill:rgb(51,199,242);fill-rule:nonzero;"/>
    </g>
    <g transform="matrix(1,0,0,1,375.63301,292.936364)">
        <path d="M0,0C1.157,0.273 2.313,0.545 3.505,0.826L3.505,1.826C1.968,1.882 1.968,1.882 0.399,1.939C-0.961,2.005 -2.322,2.072 -3.683,2.139C-4.356,2.161 -5.03,2.184 -5.724,2.207C-12.633,2.578 -16.263,5.321 -20.964,10.17C-21.782,11.004 -22.601,11.838 -23.444,12.697C-24.286,13.565 -25.128,14.432 -25.995,15.326C-27.667,17.05 -29.344,18.769 -31.026,20.482C-32.133,21.624 -32.133,21.624 -33.263,22.789C-35.495,24.826 -35.495,24.826 -37.957,26.292C-40.951,28.102 -43.119,30.225 -45.577,32.713C-46.266,33.406 -46.266,33.406 -46.968,34.113C-48.419,35.575 -49.864,37.044 -51.308,38.514C-52.296,39.512 -53.285,40.51 -54.274,41.508C-56.686,43.943 -59.093,46.382 -61.495,48.826C-62.155,48.496 -62.815,48.166 -63.495,47.826C-57.774,41.638 -51.998,35.508 -46.147,29.442C-43.431,26.622 -40.736,23.787 -38.084,20.907C-16.395,-2.605 -16.395,-2.605 0,0Z" style="fill:rgb(51,203,246);fill-rule:nonzero;"/>
    </g>
    <g transform="matrix(1,0,0,1,399.137893,291.762536)">
        <path d="M0,0C2.375,1.062 2.375,1.062 4,3C4.573,6.943 4.566,9.094 2.438,12.5C0,14 0,14 -3.562,14C-7,13 -7,13 -9,11.312C-10.377,8.128 -9.98,6.291 -9,3C-6.69,-0.647 -4.081,-0.5 0,0Z" style="fill:rgb(4,21,35);fill-rule:nonzero;"/>
    </g>
    <g transform="matrix(1,0,0,1,392.137893,369.762536)">
        <path d="M0,0C2,2 2,2 2.312,5.938C2.231,8.438 2.121,9.772 0.938,12C-2.132,13.584 -4.617,13.362 -8,13C-9.938,11.938 -9.938,11.938 -11,10C-11.5,6.562 -11.5,6.562 -11,3C-7.51,-1.106 -5.082,-1.581 0,0Z" style="fill:rgb(2,18,36);fill-rule:nonzero;"/>
    </g>
    <g transform="matrix(1,0,0,1,152.762893,336.825036)">
        <path d="M0,0C2.579,1.018 3.768,1.687 5.375,3.938C6.312,6.312 6.312,6.312 6.375,8.938C4.875,11.75 4.875,11.75 2.375,13.938C-1.127,14.429 -3.422,14.597 -6.562,12.875C-8.285,9.734 -8.116,7.439 -7.625,3.938C-5.129,1.085 -3.842,-0.091 0,0Z" style="fill:rgb(8,14,35);fill-rule:nonzero;"/>
    </g>
    <g transform="matrix(1,0,0,1,173.137893,264.762536)">
        <path d="M0,0C1.938,1.062 1.938,1.062 3,3C3.365,6.409 3.614,8.88 1.938,11.938C-1.12,13.614 -3.591,13.365 -7,13C-8.938,11.938 -8.938,11.938 -10,10C-10.365,6.591 -10.614,4.12 -8.938,1.062C-5.88,-0.614 -3.409,-0.365 0,0Z" style="fill:rgb(7,12,32);fill-rule:nonzero;"/>
    </g>
    <g transform="matrix(1,0,0,1,348.137893,212.762536)">
        <path d="M0,0C1.938,1.062 1.938,1.062 3,3C3.365,6.409 3.614,8.88 1.938,11.938C-1.12,13.614 -3.591,13.365 -7,13C-8.938,11.938 -8.938,11.938 -10,10C-10.365,6.591 -10.614,4.12 -8.938,1.062C-5.88,-0.614 -3.409,-0.365 0,0Z" style="fill:rgb(3,17,32);fill-rule:nonzero;"/>
    </g>
    <g transform="matrix(1,0,0,1,217.137893,210.762536)">
        <path d="M0,0C1.938,1.062 1.938,1.062 3,3C3.365,6.409 3.614,8.88 1.938,11.938C-1.12,13.614 -3.591,13.365 -7,13C-8.938,11.938 -8.938,11.938 -10,10C-10.365,6.591 -10.614,4.12 -8.938,1.062C-5.88,-0.614 -3.409,-0.365 0,0Z" style="fill:rgb(9,14,33);fill-rule:nonzero;"/>
    </g>
    <g transform="matrix(1,0,0,1,405.137893,427.762536)">
        <path d="M0,0C2,3 2,3 1.863,5.305C0.841,10.077 -0.044,14.025 -3,18C-3.496,18.677 -3.993,19.354 -4.504,20.051C-12.181,30.27 -19.613,36.871 -32,41C-33.394,41.067 -34.792,41.085 -36.188,41.062C-37.446,41.042 -38.704,41.021 -40,41C-36.868,39.36 -33.67,38.086 -30.375,36.812C-17.338,31.331 -8.01,22.842 -2.5,9.562C-1.348,6.411 -0.605,3.299 0,0Z" style="fill:rgb(14,144,239);fill-rule:nonzero;"/>
    </g>
    <g transform="matrix(1,0,0,1,217.137893,416.762536)">
        <path d="M0,0C1.938,1.062 1.938,1.062 3,3C3.365,6.409 3.614,8.88 1.938,11.938C-1.12,13.614 -3.591,13.365 -7,13C-8.938,11.938 -8.938,11.938 -10,10C-10.365,6.591 -10.614,4.12 -8.938,1.062C-5.88,-0.614 -3.409,-0.365 0,0Z" style="fill:rgb(6,12,34);fill-rule:nonzero;"/>
    </g>
    <g transform="matrix(1,0,0,1,452.137893,337.762536)">
        <path d="M0,0C0,3 0,3 -1.531,4.824C-2.506,5.747 -2.506,5.747 -3.5,6.688C-4.15,7.31 -4.799,7.933 -5.469,8.574C-5.974,9.045 -6.479,9.515 -7,10C-6.795,10.69 -6.59,11.379 -6.379,12.09C-4.663,18.077 -3.36,23.781 -3,30C-2.936,30.84 -2.871,31.681 -2.805,32.547C-2.432,41.135 -4.378,50.622 -9,58C-10.485,58.495 -10.485,58.495 -12,59C-11.714,58.161 -11.428,57.322 -11.133,56.457C-6.469,42.225 -2.87,28.261 -10,14C-10.438,11.125 -10.438,11.125 -10,8C-7.25,5.875 -7.25,5.875 -4,4C-2.631,2.703 -1.283,1.382 0,0Z" style="fill:rgb(18,192,240);fill-rule:nonzero;"/>
    </g>
    <g transform="matrix(1,0,0,1,382.137893,192.762536)">
        <path d="M0,0C8.862,-0.566 15.755,0.787 24,4C24.99,4.33 25.98,4.66 27,5C28.667,6.667 30.333,8.333 32,10C33.646,11.034 35.31,12.041 37,13C39,15 39,15 39,18L41,18C47.605,28.631 48.942,36.645 48,49L47,49C46.902,48.033 46.804,47.066 46.703,46.07C44.939,30.713 40.374,19.932 28.324,9.754C19.98,3.457 10.072,2.526 0,1L0,0Z" style="fill:rgb(40,208,234);fill-rule:nonzero;"/>
    </g>
    <g transform="matrix(1,0,0,1,230.137893,221.762536)">
        <path d="M0,0C0.33,0.99 0.66,1.98 1,3C-0.933,6.634 -2.328,8.646 -6.004,10.582C-9.645,13.521 -10.387,15.38 -11.153,19.907C-11.786,28.012 -10.998,33.791 -5.865,40.18C2.485,49.761 12.001,58.33 21.545,66.699C22.732,67.761 23.874,68.874 25,70C21.528,70 21.141,69.583 18.63,67.383C17.97,66.806 17.31,66.228 16.629,65.633C-12.792,39.009 -12.792,39.009 -13.704,25.625C-13.276,15.431 -13.276,15.431 -11,11C-9.037,9.25 -7.234,8.129 -4.855,7.022C-1.952,5.423 -1.118,3.003 0,0Z" style="fill:rgb(164,141,240);fill-rule:nonzero;"/>
    </g>
    <g transform="matrix(1,0,0,1,136.137893,219.762536)">
        <path d="M0,0C0.66,0.33 1.32,0.66 2,1C1.783,1.548 1.567,2.096 1.344,2.66C-1.84,11.725 -1.941,21.262 -0.25,30.688C0,34 0,34 -1.438,36.312C-4.101,38.067 -6.701,38.94 -9.707,39.949C-13.55,41.711 -16.587,44.451 -19.801,47.16C-22,49 -22,49 -25,51C-24.674,47.957 -24.021,47.02 -21.75,44.875C-19.199,43.136 -16.909,41.997 -14,41L-14,39C-12.566,38.326 -11.127,37.661 -9.688,37C-8.887,36.629 -8.086,36.258 -7.262,35.875C-5,35 -5,35 -2,35C-2.24,33.924 -2.48,32.847 -2.727,31.738C-4.812,21.736 -6.628,11.541 -1.414,2.141C-0.947,1.434 -0.481,0.728 0,0Z" style="fill:rgb(164,121,226);fill-rule:nonzero;"/>
    </g>
    <g transform="matrix(1,0,0,1,442.137893,228.762536)">
        <path d="M0,0C2.581,3.872 1.873,5.62 1.438,10.188C1.236,14.395 1.309,17.207 4.195,20.52C7.059,22.498 9.988,24.257 13,26C21.619,32.758 28.949,44.502 32,55C31.67,55.66 31.34,56.32 31,57C28,52.375 28,52.375 28,49L26,49C24.515,44.545 24.515,44.545 23,40L20,40C19.649,38.989 19.299,37.979 18.938,36.938C16.962,32.354 13.925,29.046 10,26C6.775,24.757 6.775,24.757 4,24C3.67,23.01 3.34,22.02 3,21C2.01,20.34 1.02,19.68 0,19C-0.341,17.029 -0.341,17.029 -0.293,14.648C-0.283,13.798 -0.274,12.947 -0.264,12.07C-0.239,11.181 -0.213,10.291 -0.188,9.375C-0.174,8.478 -0.16,7.581 -0.146,6.656C-0.111,4.437 -0.062,2.219 0,0Z" style="fill:rgb(30,213,239);fill-rule:nonzero;"/>
    </g>
    <g transform="matrix(1,0,0,1,221.137893,139.762536)">
        <path d="M0,0C13.337,-0.82 23.416,1.223 33.969,10.055C39.827,15.665 44.592,22.178 47,30L47,34L45,34C44.602,32.879 44.602,32.879 44.195,31.734C43.842,30.75 43.489,29.765 43.125,28.75C42.777,27.775 42.429,26.801 42.07,25.797C40.526,21.067 40.526,21.067 37,18C36.56,17.229 36.121,16.458 35.668,15.664C32.06,9.902 24.903,5.709 18.492,3.555C12.416,2.202 6.185,1.638 0,1L0,0Z" style="fill:rgb(170,149,229);fill-rule:nonzero;"/>
    </g>
    <g transform="matrix(1,0,0,1,219.137893,140.762536)">
        <path d="M0,0C-3.292,1.762 -6.667,2.955 -10.188,4.188C-22.413,8.878 -31.198,17.947 -38,29C-39,26 -39,26 -38.066,24.02C-29.55,11.522 -16.361,-1.259 0,0Z" style="fill:rgb(178,151,237);fill-rule:nonzero;"/>
    </g>
    <g transform="matrix(1,0,0,1,398.075393,289.700036)">
        <path d="M0,0C3.431,0.589 4.044,1.043 6.625,3.688C8.374,7.794 8.324,9.804 7.062,14.062C5.5,16.5 5.5,16.5 3.062,18.062C-1.835,18.762 -3.777,18.812 -7.938,16.125C-10.623,12.013 -10.405,8.835 -9.938,4.062C-8.947,4.393 -7.957,4.723 -6.938,5.062C-7.309,6.424 -7.309,6.424 -7.688,7.812C-8.259,11.075 -8.259,11.075 -6.438,13.5C-3.907,15.405 -3.907,15.405 -0.25,14.938C0.843,14.649 1.936,14.36 3.062,14.062C4.584,11.019 4.301,8.408 4.062,5.062C0.974,3.003 0.353,2.823 -3.125,2.938C-4.383,2.979 -5.641,3.02 -6.938,3.062C-4.917,-0.095 -3.843,0.061 0,0Z" style="fill:rgb(30,200,242);fill-rule:nonzero;"/>
    </g>
    <g transform="matrix(1,0,0,1,287.137893,395.762536)">
        <path d="M0,0L1,0C1.004,0.62 1.007,1.241 1.011,1.88C1.053,8.403 1.123,14.925 1.208,21.448C1.236,23.874 1.257,26.301 1.271,28.727C1.178,51.927 1.178,51.927 10,73C9.01,73.495 9.01,73.495 8,74C7.219,72.694 6.451,71.379 5.688,70.062C5.044,68.966 5.044,68.966 4.387,67.848C0.3,59.456 -0.415,52.169 -0.293,42.871C-0.289,41.641 -0.284,40.411 -0.28,39.143C-0.263,35.241 -0.226,31.339 -0.188,27.438C-0.171,24.781 -0.159,22.124 -0.146,19.467C-0.114,12.978 -0.063,6.489 0,0Z" style="fill:rgb(33,142,250);fill-rule:nonzero;"/>
    </g>
    <g transform="matrix(1,0,0,1,401.137893,281.762536)">
        <path d="M0,0C4.739,0.418 7.931,2.465 11,6C14.104,11.043 14.398,15.897 13.574,21.672C12.175,27.346 8.629,30.711 4,34C1.595,35.203 0.05,35.101 -2.625,35.062C-3.851,35.049 -3.851,35.049 -5.102,35.035C-5.728,35.024 -6.355,35.012 -7,35L-7,34C-6.397,33.879 -5.793,33.758 -5.172,33.633C-3.973,33.381 -3.973,33.381 -2.75,33.125C-1.567,32.881 -1.567,32.881 -0.359,32.633C1.996,32.001 3.908,31.25 6,30C6.33,29.34 6.66,28.68 7,28L9,28C9.391,25.606 9.764,23.211 10.125,20.812C10.237,20.139 10.349,19.465 10.465,18.771C11.261,13.334 10.464,10.292 7.562,5.75C6.02,3.731 6.02,3.731 3,3L3,1C2.01,0.67 1.02,0.34 0,0Z" style="fill:rgb(27,205,241);fill-rule:nonzero;"/>
    </g>
    <g transform="matrix(1,0,0,1,341.137893,370.762536)">
        <path d="M0,0C0.66,0.66 1.32,1.32 2,2C-5.333,9.333 -12.667,16.667 -20,24C-20,19.669 -19.911,19.391 -17.188,16.438C-16.558,15.754 -15.929,15.071 -15.281,14.367C-12.599,11.583 -9.908,8.81 -7.188,6.062C-6.708,5.578 -6.228,5.093 -5.733,4.594C-2.245,1.122 -2.245,1.122 0,0Z" style="fill:rgb(23,154,230);fill-rule:nonzero;"/>
    </g>
    <g transform="matrix(1,0,0,1,207.137893,233.762536)">
        <path d="M0,0L1,0C1.015,0.761 1.029,1.523 1.044,2.307C1.119,5.768 1.215,9.228 1.312,12.688C1.335,13.886 1.358,15.084 1.381,16.318C1.416,17.475 1.452,18.632 1.488,19.824C1.514,20.887 1.541,21.95 1.568,23.046C2.29,27.98 4.867,31.122 8.328,34.559C8.964,35.192 9.599,35.826 10.254,36.479C10.913,37.125 11.571,37.771 12.25,38.438C12.893,39.08 13.536,39.723 14.199,40.385C18.311,44.46 22.563,48.281 27,52C26.34,52.66 25.68,53.32 25,54C21.594,50.643 18.195,47.28 14.801,43.911C13.646,42.766 12.488,41.622 11.329,40.48C9.664,38.839 8.005,37.192 6.348,35.543C5.568,34.779 5.568,34.779 4.772,33.999C1.559,30.787 0.073,28.82 -0.114,24.181C-0.106,22.508 -0.106,22.508 -0.098,20.801C-0.094,19.592 -0.091,18.384 -0.088,17.139C-0.08,15.876 -0.071,14.613 -0.062,13.312C-0.056,11.401 -0.056,11.401 -0.049,9.451C-0.037,6.301 -0.021,3.15 0,0Z" style="fill:rgb(158,130,228);fill-rule:nonzero;"/>
    </g>
    <g transform="matrix(1,0,0,1,331.137893,139.762536)">
        <path d="M0,0C14.431,-0.834 26.476,1.512 38,11C40.562,13.875 40.562,13.875 42,16C38.347,14.75 37.219,14.329 35,11C34.01,10.67 33.02,10.34 32,10L32,8C30.011,7.301 28.007,6.646 26,6C25.234,5.747 24.469,5.495 23.68,5.234C15.788,2.831 8.203,2.321 0,2L0,0Z" style="fill:rgb(50,213,242);fill-rule:nonzero;"/>
    </g>
    <g transform="matrix(1,0,0,1,363.805862,293.469567)">
        <path d="M0,0C0.893,0.01 1.785,0.019 2.705,0.029C4.098,0.067 4.098,0.067 5.52,0.105C6.46,0.119 7.4,0.133 8.369,0.146C10.691,0.182 13.011,0.231 15.332,0.293L15.332,1.293C13.795,1.349 13.795,1.349 12.227,1.406C10.866,1.472 9.505,1.538 8.145,1.605C7.471,1.628 6.797,1.651 6.104,1.674C-0.879,2.049 -4.522,4.887 -9.312,9.742C-10.154,10.59 -10.995,11.437 -11.861,12.311C-13.158,13.632 -13.158,13.632 -14.48,14.98C-15.806,16.319 -15.806,16.319 -17.158,17.686C-19.333,19.884 -21.502,22.086 -23.668,24.293C-24.328,23.963 -24.988,23.633 -25.668,23.293C-25.01,22.651 -25.01,22.651 -24.339,21.995C-22.339,20.037 -20.347,18.072 -18.355,16.105C-17.665,15.432 -16.975,14.758 -16.264,14.064C-12.826,10.66 -10.012,7.564 -7.668,3.293C-5.292,0.296 -3.776,-0.072 0,0Z" style="fill:rgb(38,198,248);fill-rule:nonzero;"/>
    </g>
    <g transform="matrix(1,0,0,1,165.137893,252.762536)">
        <path d="M0,0C6.495,-0.472 11.476,0.381 17,4C21.814,9.031 23.293,13.934 23.227,20.707C22.905,23.958 21.766,26.283 20,29C19.34,29.33 18.68,29.66 18,30C18.33,28.886 18.66,27.773 19,26.625C20.538,20.339 21.189,14.516 18.375,8.562C13.101,2.872 7.379,2.423 0,2L0,0Z" style="fill:rgb(155,126,226);fill-rule:nonzero;"/>
    </g>
    <g transform="matrix(1,0,0,1,351.981643,201.782067)">
        <path d="M0,0C0.712,0.324 1.423,0.647 2.156,0.98C-0.675,2 -2.125,1.927 -5.156,1.355C-9.775,0.886 -11.842,1.652 -15.844,3.98C-19.62,7.426 -22.523,10.682 -22.844,15.98C-23.504,15.65 -24.164,15.32 -24.844,14.98C-24.488,9.051 -23.037,6.174 -18.844,1.98C-13.805,-2.466 -6.086,-2.182 0,0Z" style="fill:rgb(50,207,240);fill-rule:nonzero;"/>
    </g>
    <g transform="matrix(1,0,0,1,241.137893,155.762536)">
        <path d="M0,0L0,2C-0.785,1.783 -1.57,1.567 -2.379,1.344C-12.913,-1.448 -23.031,-2.267 -33.035,3.09C-34.384,4.021 -35.697,5.005 -37,6L-39,6C-38,3 -38,3 -35.855,1.648C-34.975,1.228 -34.095,0.808 -33.188,0.375C-32.315,-0.05 -31.442,-0.476 -30.543,-0.914C-21.365,-4.833 -8.861,-4.431 0,0Z" style="fill:rgb(166,136,228);fill-rule:nonzero;"/>
    </g>
    <g transform="matrix(1,0,0,1,1189.137893,359.762536)">
        <path d="M0,0L11,0L11,17C6.05,17.495 6.05,17.495 1,18C0.67,17.34 0.34,16.68 0,16C1.134,15.856 2.269,15.711 3.438,15.562C6.808,15.388 6.808,15.388 8,14C8.234,11.984 8.413,9.962 8.562,7.938C8.646,6.833 8.73,5.728 8.816,4.59C8.877,3.735 8.938,2.881 9,2L0,2L0,0Z" style="fill:rgb(36,134,238);fill-rule:nonzero;"/>
    </g>
    <g transform="matrix(1,0,0,1,355.137893,204.762536)">
        <path d="M0,0C4.292,1.533 6.019,3.968 8,8C9.133,15.421 7.835,20.649 4,27L2,27C2.324,26.504 2.647,26.007 2.98,25.496C4.391,22.042 4.329,18.733 4.312,15.062C4.329,14.359 4.345,13.656 4.361,12.932C4.366,8.396 3.662,5.659 1,2C0.67,1.34 0.34,0.68 0,0Z" style="fill:rgb(46,202,239);fill-rule:nonzero;"/>
    </g>
    <g transform="matrix(1,0,0,1,195.137893,166.762536)">
        <path d="M0,0L2,0C0.879,2.991 -0.413,5.765 -1.938,8.562C-4.223,13.007 -5.242,17.597 -6.289,22.461C-7,25 -7,25 -9,27C-11.745,27.145 -14.385,27.187 -17.125,27.125C-17.879,27.116 -18.633,27.107 -19.41,27.098C-21.274,27.074 -23.137,27.038 -25,27L-25,26C-20.05,25.67 -15.1,25.34 -10,25C-9.602,23.568 -9.203,22.136 -8.793,20.66C-8.258,18.794 -7.723,16.928 -7.188,15.062C-6.926,14.117 -6.665,13.171 -6.396,12.197C-6.135,11.298 -5.874,10.399 -5.605,9.473C-5.37,8.64 -5.134,7.807 -4.891,6.949C-4.45,5.984 -4.45,5.984 -4,5C-3.01,4.67 -2.02,4.34 -1,4C-0.267,1.985 -0.267,1.985 0,0Z" style="fill:rgb(173,137,235);fill-rule:nonzero;"/>
    </g>
    <g transform="matrix(1,0,0,1,439.137893,396.762536)">
        <path d="M0,0C0.33,0.66 0.66,1.32 1,2C-0.845,6.612 -3.218,9.786 -7,13L-10,13C-10.165,13.619 -10.33,14.238 -10.5,14.875C-12.902,18.278 -16.002,18.226 -20,19L-20,17C-18.094,15.773 -18.094,15.773 -15.5,14.375C-9.137,10.696 -4.083,6.124 0,0Z" style="fill:rgb(21,170,235);fill-rule:nonzero;"/>
    </g>
    <g transform="matrix(1,0,0,1,1325.137893,296.762536)">
        <path d="M0,0C-1.65,0.66 -3.3,1.32 -5,2L-5,4C-6.574,5.551 -6.574,5.551 -8.688,7.312C-13.252,11.2 -17.533,15.073 -21,20C-20.065,12.051 -14.918,7.77 -9.219,2.734C-4.011,-1.337 -4.011,-1.337 0,0Z" style="fill:rgb(27,174,237);fill-rule:nonzero;"/>
    </g>
    <g transform="matrix(1,0,0,1,475.137893,297.762536)">
        <path d="M0,0C2.744,2.744 2.332,4.347 2.375,8.188C2.291,16.247 0.407,23.328 -2,31C-2.66,30.67 -3.32,30.34 -4,30C-3.795,29.007 -3.59,28.015 -3.379,26.992C-1.572,17.973 -0.417,9.206 0,0Z" style="fill:rgb(21,205,230);fill-rule:nonzero;"/>
    </g>
    <g transform="matrix(1,0,0,1,210.137893,477.762536)">
        <path d="M0,0C2.754,0.623 4.931,1.408 7.562,2.562C15.21,5.448 22.568,4.529 30.051,1.668C32.428,0.853 34.507,0.759 37,1C31.286,5.835 25.311,6.363 18.125,6.375C17.361,6.399 16.596,6.424 15.809,6.449C10.144,6.478 5.699,5.254 1,2C0.67,1.34 0.34,0.68 0,0Z" style="fill:rgb(100,54,231);fill-rule:nonzero;"/>
    </g>
    <g transform="matrix(1,0,0,1,116.137893,247.762536)">
        <path d="M0,0C0.99,0.33 1.98,0.66 3,1C2.299,1.473 1.597,1.946 0.875,2.434C-4.894,6.455 -9.742,10.514 -14.246,15.922C-16.06,18.071 -17.989,20.037 -20,22C-18.304,12.703 -9.225,6.178 -2,1C-1.34,0.67 -0.68,0.34 0,0Z" style="fill:rgb(184,135,231);fill-rule:nonzero;"/>
    </g>
    <g transform="matrix(1,0,0,1,166.137893,195.762536)">
        <path d="M0,0C-0.941,0.447 -1.882,0.895 -2.852,1.355C-4.11,1.966 -5.367,2.576 -6.625,3.188C-7.242,3.479 -7.86,3.771 -8.496,4.072C-14.592,7.056 -19.39,10.714 -23.375,16.312C-23.878,17.01 -24.38,17.707 -24.898,18.426C-25.444,19.205 -25.444,19.205 -26,20C-26.33,19.34 -26.66,18.68 -27,18C-25.688,15.375 -25.688,15.375 -24,13L-22,13L-22,10C-19.747,7.094 -16.77,5.639 -13.562,3.938C-12.615,3.431 -11.668,2.924 -10.691,2.402C-9.359,1.708 -9.359,1.708 -8,1C-7.308,0.589 -6.616,0.178 -5.902,-0.246C-3.544,-1.181 -2.349,-0.839 0,0Z" style="fill:rgb(171,132,228);fill-rule:nonzero;"/>
    </g>
    <g transform="matrix(1,0,0,1,230.137893,221.762536)">
        <path d="M0,0C0.33,0.99 0.66,1.98 1,3C-0.967,6.699 -2.245,8.653 -6.098,10.426C-9.523,13.464 -9.482,14.24 -9.805,18.641C-9.858,20.843 -9.88,23.047 -9.875,25.25C-9.896,26.377 -9.916,27.503 -9.938,28.664C-9.985,31.443 -10.004,34.22 -10,37L-11,37C-11.233,32.772 -11.375,28.545 -11.5,24.312C-11.567,23.114 -11.634,21.916 -11.703,20.682C-11.898,11.942 -11.898,11.942 -9.254,9.169C-7.094,7.875 -7.094,7.875 -4.928,6.949C-1.909,5.463 -1.129,3.035 0,0Z" style="fill:rgb(174,146,242);fill-rule:nonzero;"/>
    </g>
    <g transform="matrix(1,0,0,1,395.262893,280.700036)">
        <path d="M0,0C0.91,0.009 1.82,0.018 2.758,0.027C3.806,0.045 3.806,0.045 4.875,0.062L4.875,1.062C1.245,1.722 -2.385,2.382 -6.125,3.062L-6.125,5.062C-8.108,6.75 -10.108,8.416 -12.125,10.062C-12.455,10.723 -12.785,11.383 -13.125,12.062L-15.125,12.062C-15.041,9.202 -14.557,7.516 -12.57,5.43C-8.235,1.706 -5.822,-0.075 0,0Z" style="fill:rgb(33,208,245);fill-rule:nonzero;"/>
    </g>
    <g transform="matrix(1,0,0,1,1233.137893,296.762536)">
        <path d="M0,0C-1.32,0.33 -2.64,0.66 -4,1L-4,3L-7,3C-7.33,3.99 -7.66,4.98 -8,6C-8.639,6.289 -9.279,6.577 -9.938,6.875C-12.249,7.851 -12.249,7.851 -13,10.5C-14,13 -14,13 -16.125,14.312C-17.053,14.653 -17.053,14.653 -18,15C-16.995,9.229 -12.646,4.992 -8.086,1.559C-3.58,-1.193 -3.58,-1.193 0,0Z" style="fill:rgb(46,163,243);fill-rule:nonzero;"/>
    </g>
    <g transform="matrix(1,0,0,1,351.137893,214.762536)">
        <path d="M0,0C1.562,1.125 1.562,1.125 3,3C2.777,6.647 2.616,8.384 0,11C-3.513,13.342 -4.865,13.496 -9,13C-11.875,11 -11.875,11 -14,9C-13.67,8.34 -13.34,7.68 -13,7C-12.474,7.742 -12.474,7.742 -11.938,8.5C-9.006,10.77 -6.591,10.326 -3,10C-0.704,7.704 -0.677,6.992 -0.375,3.875C-0.251,2.596 -0.128,1.317 0,0Z" style="fill:rgb(57,201,233);fill-rule:nonzero;"/>
    </g>
    <g transform="matrix(1,0,0,1,221.137893,139.762536)">
        <path d="M0,0C10.025,-0.616 18.11,-0.303 27,5C29.332,7.172 29.332,7.172 31,9C28.136,8.387 25.867,7.482 23.312,6.062C15.973,2.318 8.117,1.644 0,1L0,0Z" style="fill:rgb(176,154,238);fill-rule:nonzero;"/>
    </g>
    <g transform="matrix(1,0,0,1,388.137893,293.762536)">
        <path d="M0,0C0.99,0.33 1.98,0.66 3,1C2.752,1.907 2.505,2.815 2.25,3.75C1.679,7.013 1.679,7.013 3.5,9.438C6.022,11.346 6.022,11.346 9.625,10.812C12.845,10.172 12.845,10.172 15,9C14.67,10.32 14.34,11.64 14,13C10.892,13.921 8.227,14.472 5,14C2.188,12.062 2.188,12.062 0,9C-0.408,5.952 -0.3,3.055 0,0Z" style="fill:rgb(38,210,248);fill-rule:nonzero;"/>
    </g>
    <g transform="matrix(1,0,0,1,316.137893,282.762536)">
        <path d="M0,0C-1.379,3.099 -2.97,5.241 -5.375,7.625C-6.253,8.511 -6.253,8.511 -7.148,9.414C-9.01,11.009 -10.768,12.007 -13,13C-12.463,8.967 -10.458,7.055 -7.625,4.25C-6.834,3.451 -6.042,2.652 -5.227,1.828C-3,0 -3,0 0,0Z" style="fill:rgb(56,191,247);fill-rule:nonzero;"/>
    </g>
    <g transform="matrix(1,0,0,1,359.137893,160.762536)">
        <path d="M0,0C2.475,0.99 2.475,0.99 5,2L5,4C5.903,4.36 5.903,4.36 6.824,4.727C9.469,6.275 10.345,7.705 11.812,10.375C12.252,11.146 12.692,11.917 13.145,12.711C14.116,15.311 13.953,16.44 13,19C12.648,18.371 12.296,17.742 11.934,17.094C8.833,11.719 5.547,7.043 1.32,2.496C0,1 0,1 0,0Z" style="fill:rgb(47,215,244);fill-rule:nonzero;"/>
    </g>
    <g transform="matrix(1,0,0,1,446.137893,375.762536)">
        <path d="M0,0C2.3,4.109 2.066,6.354 1,11C-0.109,14.121 -1.246,17.182 -3,20C-3.99,20.33 -4.98,20.66 -6,21C-5.714,20.172 -5.428,19.345 -5.133,18.492C-3.913,14.731 -2.876,10.949 -1.875,7.125C-1.693,6.437 -1.511,5.748 -1.324,5.039C-0.881,3.36 -0.44,1.68 0,0Z" style="fill:rgb(19,166,220);fill-rule:nonzero;"/>
    </g>
    <g transform="matrix(1,0,0,1,384.137893,459.762536)">
        <path d="M0,0C0.33,0.99 0.66,1.98 1,3C-0.436,3.816 -1.874,4.627 -3.312,5.438C-4.113,5.89 -4.914,6.342 -5.738,6.809C-9.009,8.532 -11.543,9.122 -15.188,9.062C-17.075,9.032 -17.075,9.032 -19,9C-14.717,6.771 -10.248,5.031 -5.777,3.219C-2.87,2.039 -2.87,2.039 0,0Z" style="fill:rgb(20,134,240);fill-rule:nonzero;"/>
    </g>
    <g transform="matrix(1,0,0,1,404.137893,458.762536)">
        <path d="M0,0C0.99,0.33 1.98,0.66 3,1C-2.229,7.827 -9.688,15.229 -18,18C-16.808,14.425 -16.006,14.139 -12.875,12.25C-7.957,9.107 -2.671,5.341 0,0Z" style="fill:rgb(21,137,236);fill-rule:nonzero;"/>
    </g>
    <g transform="matrix(1,0,0,1,287.137893,447.762536)">
        <path d="M0,0L2,0C2.364,1.394 2.364,1.394 2.734,2.816C4.509,9.362 6.202,15.303 10,21C9.34,21.33 8.68,21.66 8,22C3.852,15.064 0,8.238 0,0Z" style="fill:rgb(20,117,235);fill-rule:nonzero;"/>
    </g>
    <g transform="matrix(1,0,0,1,373.137893,155.762536)">
        <path d="M0,0C6.044,4.317 10.786,10.073 12.598,17.426C12.875,19.625 12.875,19.625 13,23C11,20 11,20 11,17L9,17C8.629,15.824 8.258,14.649 7.875,13.438C6.367,9.335 4.206,6.583 1.207,3.445C0,2 0,2 0,0Z" style="fill:rgb(46,213,239);fill-rule:nonzero;"/>
    </g>
    <g transform="matrix(1,0,0,1,179.137893,167.762536)">
        <path d="M0,0C2,3 2,3 1.645,5.191C1.37,5.974 1.095,6.756 0.812,7.562C0.551,8.348 0.289,9.133 0.02,9.941C-1,12 -1,12 -4,14C-7.188,13.625 -7.188,13.625 -10,13L-10,12L-3,12C-2.814,10.422 -2.814,10.422 -2.625,8.812C-2.089,5.54 -1.361,2.995 0,0Z" style="fill:rgb(168,136,229);fill-rule:nonzero;"/>
    </g>
    <g transform="matrix(1,0,0,1,410.137893,415.762536)">
        <path d="M0,0C2.141,0.402 2.141,0.402 4,1C3.476,1.706 3.476,1.706 2.941,2.426C2.486,3.048 2.031,3.671 1.562,4.312C1.11,4.927 0.658,5.542 0.191,6.176C-1.173,8.097 -1.173,8.097 -2,11C-2.66,10.67 -3.32,10.34 -4,10C-4.331,6.359 -4.42,4.585 -2.25,1.562C-1.508,1.047 -0.765,0.531 0,0Z" style="fill:rgb(19,154,235);fill-rule:nonzero;"/>
    </g>
    <g transform="matrix(1,0,0,1,338.137893,275.762536)">
        <path d="M0,0C0.99,0.33 1.98,0.66 3,1C0.03,3.97 -2.94,6.94 -6,10C-6.99,9.34 -7.98,8.68 -9,8C-6.03,5.36 -3.06,2.72 0,0Z" style="fill:rgb(3,28,40);fill-rule:nonzero;"/>
    </g>
    <g transform="matrix(1,0,0,1,426.137893,218.762536)">
        <path d="M0,0C3.873,5.051 4.129,8.324 4.062,14.625C4.058,15.427 4.053,16.229 4.049,17.055C4.037,19.036 4.019,21.018 4,23L3,23C2.879,21.998 2.758,20.997 2.633,19.965C2.464,18.622 2.295,17.28 2.125,15.938C2.007,14.952 2.007,14.952 1.887,13.947C1.313,9.466 0.336,5.316 -1,1C-0.67,0.67 -0.34,0.34 0,0Z" style="fill:rgb(29,201,231);fill-rule:nonzero;"/>
    </g>
    <g transform="matrix(1,0,0,1,307.137893,164.762536)">
        <path d="M0,0L2,0C0.831,3.117 -0.527,6.052 -2.062,9C-3.584,11.987 -4.58,14.64 -5,18C-7,15 -7,15 -6.781,12.609C-5.969,9.895 -4.915,7.701 -3.5,5.25C-3.057,4.471 -2.613,3.693 -2.156,2.891C-1,1 -1,1 0,0Z" style="fill:rgb(56,208,246);fill-rule:nonzero;"/>
    </g>
    <g transform="matrix(1,0,0,1,430.137893,233.762536)">
        <path d="M0,0L1,0C2.312,7.429 1.655,12.95 -1,20L-3,20C-2.336,13.254 -1.281,6.656 0,0Z" style="fill:rgb(31,216,244);fill-rule:nonzero;"/>
    </g>
    <g transform="matrix(1,0,0,1,1288.137893,340.762536)">
        <path d="M0,0L2,0C1.484,6.84 -0.486,12.639 -3,19L-4,19C-4.376,13.867 -3.076,10.65 -1,6C-0.602,4.012 -0.245,2.013 0,0Z" style="fill:rgb(22,148,233);fill-rule:nonzero;"/>
    </g>
    <g transform="matrix(1,0,0,1,1198.137893,368.762536)">
        <path d="M0,0L2,0L2,8C-1.3,8.33 -4.6,8.66 -8,9C-8.33,8.34 -8.66,7.68 -9,7C-5.535,6.505 -5.535,6.505 -2,6C-1.34,4.02 -0.68,2.04 0,0Z" style="fill:rgb(33,127,230);fill-rule:nonzero;"/>
    </g>
    <g transform="matrix(1,0,0,1,292.137893,167.762536)">
        <path d="M0,0C1.184,3.552 0.695,4.698 -0.438,8.188C-0.725,9.089 -1.012,9.99 -1.309,10.918C-1.537,11.605 -1.765,12.292 -2,13L-5,13C-4.37,7.435 -3.086,4.63 0,0Z" style="fill:rgb(54,194,235);fill-rule:nonzero;"/>
    </g>
    <g transform="matrix(1,0,0,1,196.137893,214.762536)">
        <path d="M0,0L1,0L1,8C1.66,8.33 2.32,8.66 3,9C3.433,9.742 3.866,10.485 4.312,11.25C6.191,14.311 8.399,16.539 11,19C5.971,17.563 4.043,15.058 1,11C-0.203,8.595 -0.101,7.05 -0.062,4.375C-0.053,3.558 -0.044,2.74 -0.035,1.898C-0.024,1.272 -0.012,0.645 0,0Z" style="fill:rgb(173,142,241);fill-rule:nonzero;"/>
    </g>
    <g transform="matrix(1,0,0,1,405.137893,427.762536)">
        <path d="M0,0C2.438,3.657 2.124,4.996 1.48,9.137C0.863,11.531 -0.015,12.549 -2,14C-3.009,14.991 -4.01,15.99 -5,17C-4.807,16.443 -4.613,15.886 -4.414,15.312C-2.686,10.249 -1.231,5.207 0,0Z" style="fill:rgb(21,149,230);fill-rule:nonzero;"/>
    </g>
    <g transform="matrix(1,0,0,1,471.137893,327.762536)">
        <path d="M0,0C1,3 1,3 0.074,5.445C-0.383,6.33 -0.841,7.214 -1.312,8.125C-1.987,9.459 -1.987,9.459 -2.676,10.82C-4,13 -4,13 -6,14C-5.449,10.051 -4.611,6.651 -3,3L-1,3C-0.67,2.01 -0.34,1.02 0,0Z" style="fill:rgb(16,211,247);fill-rule:nonzero;"/>
    </g>
    <g transform="matrix(1,0,0,1,363.137893,217.762536)">
        <path d="M0,0C-0.62,9.808 -0.62,9.808 -4,14L-6,14C-5.68,13.437 -5.361,12.873 -5.031,12.293C-3.631,9.178 -3.565,6.299 -3.344,2.926C-3.23,2.29 -3.117,1.655 -3,1C-1,0 -1,0 0,0Z" style="fill:rgb(43,210,245);fill-rule:nonzero;"/>
    </g>
    <g transform="matrix(1,0,0,1,215.137893,415.762536)">
        <path d="M0,0L0,1C-0.969,1.309 -1.939,1.619 -2.938,1.938C-5.841,2.695 -5.841,2.695 -7,4C-7.305,8.651 -7.305,8.651 -6,13C-6.99,12.67 -7.98,12.34 -9,12C-10.222,5.648 -10.222,5.648 -9.188,2.625C-6.738,-0.727 -3.855,-0.084 0,0Z" style="fill:rgb(107,66,221);fill-rule:nonzero;"/>
    </g>
    <g transform="matrix(1,0,0,1,298.137893,156.762536)">
        <path d="M0,0C0,3.258 -0.552,5.104 -2,8C-2.99,8.33 -3.98,8.66 -5,9C-6.225,12.008 -6.225,12.008 -7,15C-8,12 -8,12 -6.855,9.59C-6.305,8.715 -5.755,7.839 -5.188,6.938C-4.645,6.06 -4.102,5.182 -3.543,4.277C-2,2 -2,2 0,0Z" style="fill:rgb(71,214,244);fill-rule:nonzero;"/>
    </g>
    <g transform="matrix(1,0,0,1,106.137893,274.762536)">
        <path d="M0,0L2,0C0.496,3.787 -1.055,7.552 -2.625,11.312C-3.071,12.381 -3.517,13.45 -3.977,14.551C-4.314,15.359 -4.652,16.167 -5,17C-6.162,13.515 -5.777,12.328 -4.75,8.875C-4.497,7.986 -4.245,7.096 -3.984,6.18C-3.66,5.46 -3.335,4.741 -3,4C-2.01,3.67 -1.02,3.34 0,3L0,0Z" style="fill:rgb(174,119,238);fill-rule:nonzero;"/>
    </g>
    <g transform="matrix(1,0,0,1,379.137893,359.762536)">
        <path d="M0,0C0.66,0.99 1.32,1.98 2,3C-2.395,7.004 -2.395,7.004 -4,8C-4.99,7.67 -5.98,7.34 -7,7C-2.25,1.125 -2.25,1.125 0,0Z" style="fill:rgb(26,166,236);fill-rule:nonzero;"/>
    </g>
    <g transform="matrix(1,0,0,1,102.137893,258.762536)">
        <path d="M0,0C0.66,0.66 1.32,1.32 2,2C-0.31,4.97 -2.62,7.94 -5,11C-5.33,10.01 -5.66,9.02 -6,8C-4.785,5.957 -4.785,5.957 -3.062,3.812C-2.497,3.097 -1.931,2.382 -1.348,1.645C-0.903,1.102 -0.458,0.559 0,0Z" style="fill:rgb(180,126,239);fill-rule:nonzero;"/>
    </g>
    <g transform="matrix(1,0,0,1,329.137893,140.762536)">
        <path d="M0,0C-1.333,0.667 -2.667,1.333 -4,2C-4.897,2.557 -4.897,2.557 -5.812,3.125C-8.9,4.36 -11.712,4.126 -15,4C-10.792,-0.208 -5.687,-0.227 0,0Z" style="fill:rgb(68,203,234);fill-rule:nonzero;"/>
    </g>
    <g transform="matrix(1,0,0,1,197.137893,413.762536)">
        <path d="M0,0C1.067,3.462 1.102,6.64 1.062,10.25C1.053,11.328 1.044,12.405 1.035,13.516C1.024,14.335 1.012,15.155 1,16L-1,16C-2.001,10.037 -2.066,5.713 0,0Z" style="fill:rgb(108,64,225);fill-rule:nonzero;"/>
    </g>
    <g transform="matrix(1,0,0,1,1334.137893,310.762536)">
        <path d="M0,0L0,2C-1.496,3.438 -1.496,3.438 -3.438,5C-6.152,7.145 -6.152,7.145 -8,10L-10,10C-8.716,5.506 -5.23,0 0,0Z" style="fill:rgb(2,23,39);fill-rule:nonzero;"/>
    </g>
    <g transform="matrix(1,0,0,1,437.137893,212.762536)">
        <path d="M0,0C3.46,2.674 4.07,5.85 5,10C5.125,12.938 5.125,12.938 5,15C3,12 3,12 3,8L1,8C0.67,5.36 0.34,2.72 0,0Z" style="fill:rgb(28,214,235);fill-rule:nonzero;"/>
    </g>
    <g transform="matrix(1,0,0,1,568.137893,310.762536)">
        <path d="M0,0C0.66,0.66 1.32,1.32 2,2C1.546,2.392 1.093,2.784 0.625,3.188C-1.276,5.308 -2.062,7.33 -3,10L-9,10L-9,9L-4,9C-3.845,7.608 -3.845,7.608 -3.688,6.188C-2.993,2.967 -2.523,1.974 0,0Z" style="fill:rgb(17,21,29);fill-rule:nonzero;"/>
    </g>
    <g transform="matrix(1,0,0,1,171.137893,468.762536)">
        <path d="M0,0C0.99,0.402 0.99,0.402 2,0.812C3.672,1.474 5.35,2.125 7.043,2.73C8.105,3.111 8.105,3.111 9.188,3.5C9.862,3.737 10.536,3.974 11.23,4.219C13,5 13,5 15,7C9.459,6.432 4.963,4.371 0,2L0,0Z" style="fill:rgb(105,58,227);fill-rule:nonzero;"/>
    </g>
    <g transform="matrix(1,0,0,1,419.137893,191.762536)">
        <path d="M0,0C5.011,1.432 6.945,3.984 10,8C5.808,7.047 4.279,6.367 1.625,2.875C1.089,1.926 0.552,0.978 0,0Z" style="fill:rgb(30,205,232);fill-rule:nonzero;"/>
    </g>
    <g transform="matrix(1,0,0,1,146.137893,204.762536)">
        <path d="M0,0C0.66,0.33 1.32,0.66 2,1C-0.64,4.3 -3.28,7.6 -6,11C-6.33,10.34 -6.66,9.68 -7,9C-5.688,6.375 -5.688,6.375 -4,4L-2,4L-2,1C-1.34,0.67 -0.68,0.34 0,0Z" style="fill:rgb(183,139,242);fill-rule:nonzero;"/>
    </g>
    <g transform="matrix(1,0,0,1,185.137893,159.762536)">
        <path d="M0,0C0.33,0.99 0.66,1.98 1,3C0.004,4.824 0.004,4.824 -1.438,6.688C-1.911,7.31 -2.384,7.933 -2.871,8.574C-3.244,9.045 -3.616,9.515 -4,10C-4.33,9.01 -4.66,8.02 -5,7C-2,2 -2,2 0,0Z" style="fill:rgb(185,153,243);fill-rule:nonzero;"/>
    </g>
    <g transform="matrix(1,0,0,1,375.137893,464.762536)">
        <path d="M0,0C0.33,0.99 0.66,1.98 1,3C-1.751,3.917 -3.359,4.109 -6.188,4.062C-8.075,4.032 -8.075,4.032 -10,4C-6.775,2.263 -3.487,1.109 0,0Z" style="fill:rgb(17,122,225);fill-rule:nonzero;"/>
    </g>
    <g transform="matrix(1,0,0,1,195.137893,166.762536)">
        <path d="M0,0L2,0C0.55,4.11 -1.511,7.433 -4,11C-4.33,10.34 -4.66,9.68 -5,9C-4.062,6.375 -4.062,6.375 -3,4L-1,4C-0.67,2.68 -0.34,1.36 0,0Z" style="fill:rgb(178,147,240);fill-rule:nonzero;"/>
    </g>
    <g transform="matrix(1,0,0,1,369.137893,149.762536)">
        <path d="M0,0C3.795,1.491 5.61,3.757 8,7C5,7 5,7 2.312,4.625C0,2 0,2 0,0Z" style="fill:rgb(3,39,50);fill-rule:nonzero;"/>
    </g>
    <g transform="matrix(1,0,0,1,444.137893,387.762536)">
        <path d="M0,0C0.885,2.478 1.116,3.661 0.25,6.188C-1,8 -1,8 -4,9C-2.941,5.597 -1.991,2.986 0,0Z" style="fill:rgb(18,187,239);fill-rule:nonzero;"/>
    </g>
    <g transform="matrix(1,0,0,1,1355.137893,314.762536)">
        <path d="M0,0C1.922,0.711 1.922,0.711 4,2C4.828,4.164 4.828,4.164 5.25,6.625C5.4,7.442 5.549,8.26 5.703,9.102C5.801,9.728 5.899,10.355 6,11C2.892,7.892 1.378,4.135 0,0Z" style="fill:rgb(16,175,240);fill-rule:nonzero;"/>
    </g>
    <g transform="matrix(1,0,0,1,429.137893,200.762536)">
        <path d="M0,0C3.394,3.126 5.606,5.565 7,10C6.01,9.67 5.02,9.34 4,9C3.67,7.35 3.34,5.7 3,4C2.01,3.67 1.02,3.34 0,3L0,0Z" style="fill:rgb(30,216,244);fill-rule:nonzero;"/>
    </g>
    <g transform="matrix(1,0,0,1,373.137893,180.762536)">
        <path d="M0,0C2.152,3.228 2.201,4.284 2,8L4,8L4,11C4.66,11.33 5.32,11.66 6,12C4.68,11.67 3.36,11.34 2,11C0.807,7.123 0,4.084 0,0Z" style="fill:rgb(52,222,249);fill-rule:nonzero;"/>
    </g>
    <g transform="matrix(1,0,0,1,326.137893,386.762536)">
        <path d="M0,0C0.66,0.33 1.32,0.66 2,1C0.02,3.31 -1.96,5.62 -4,8C-4.66,7.67 -5.32,7.34 -6,7C-4.607,3.633 -3.021,2.014 0,0Z" style="fill:rgb(22,150,245);fill-rule:nonzero;"/>
    </g>
    <g transform="matrix(1,0,0,1,459.137893,345.762536)">
        <path d="M0,0C0.934,3.01 1.044,3.867 0,7C0.394,9.638 0.394,9.638 1,12L-1,12C-1.223,10.565 -1.428,9.127 -1.625,7.688C-1.741,6.887 -1.857,6.086 -1.977,5.262C-2,3 -2,3 0,0Z" style="fill:rgb(24,200,246);fill-rule:nonzero;"/>
    </g>
    <g transform="matrix(1,0,0,1,99.137893,314.762536)">
        <path d="M0,0C0.99,0.495 0.99,0.495 2,1C2.633,3.066 2.633,3.066 3.125,5.562C3.293,6.389 3.46,7.215 3.633,8.066C3.754,8.704 3.875,9.343 4,10L2,10L2,7L0,7L0,0Z" style="fill:rgb(150,98,218);fill-rule:nonzero;"/>
    </g>
    <g transform="matrix(1,0,0,1,1397.137893,366.762536)">
        <path d="M0,0C3.726,1.242 5.393,3.111 8,6L8,8C4.638,6.559 2.408,4.752 0,2L0,0Z" style="fill:rgb(5,154,238);fill-rule:nonzero;"/>
    </g>
    <g transform="matrix(1,0,0,1,169.137893,310.762536)">
        <path d="M0,0C3.367,1.393 4.986,2.979 7,6C4,6 4,6 1.812,4.125C0,2 0,2 0,0Z" style="fill:rgb(139,106,212);fill-rule:nonzero;"/>
    </g>
    <g transform="matrix(1,0,0,1,461.137893,288.762536)">
        <path d="M0,0C1.984,2.917 1.988,4.124 1.625,7.75C1.419,8.822 1.212,9.895 1,11L0,11C-1.125,3.375 -1.125,3.375 0,0Z" style="fill:rgb(22,192,221);fill-rule:nonzero;"/>
    </g>
    <g transform="matrix(1,0,0,1,117.137893,263.762536)">
        <path d="M0,0C-1.393,3.367 -2.979,4.986 -6,7C-5.372,3.355 -4.147,0 0,0Z" style="fill:rgb(183,124,251);fill-rule:nonzero;"/>
    </g>
</svg>
